<?xml version="1.0" encoding="utf-8"?>
<!-- Generator: Adobe Illustrator 25.0.0, SVG Export Plug-In . SVG Version: 6.00 Build 0)  -->
<svg version="1.1" id="Layer_1" xmlns="http://www.w3.org/2000/svg" xmlns:xlink="http://www.w3.org/1999/xlink" x="0px" y="0px"
	 viewBox="0 0 367.3 117.6" style="enable-background:new 0 0 367.3 117.6;" xml:space="preserve">
<style type="text/css">
	.st0{fill:url(#SVGID_1_);}
	.st1{fill:url(#SVGID_2_);}
	.st2{fill:url(#SVGID_3_);}
	.st3{fill:url(#SVGID_4_);}
	.st4{fill:url(#SVGID_5_);}
	.st5{fill:url(#SVGID_6_);}
	.st6{fill:url(#SVGID_7_);}
	.st7{fill:url(#SVGID_8_);}
	.st8{fill:url(#SVGID_9_);}
	.st9{fill:url(#SVGID_10_);}
	.st10{fill:url(#SVGID_11_);}
	.st11{fill:url(#SVGID_12_);}
	.st12{fill:url(#SVGID_13_);}
	.st13{fill:url(#SVGID_14_);}
	.st14{fill:url(#SVGID_15_);}
	.st15{fill:url(#SVGID_16_);}
	.st16{fill:url(#SVGID_17_);}
	.st17{fill:url(#SVGID_18_);}
	.st18{fill:url(#SVGID_19_);}
	.st19{fill:url(#SVGID_20_);}
	.st20{fill:url(#SVGID_21_);}
	.st21{fill:url(#SVGID_22_);}
	.st22{fill:url(#SVGID_23_);}
	.st23{fill:url(#SVGID_24_);}
	.st24{fill:url(#SVGID_25_);}
	.st25{fill:url(#SVGID_26_);}
	.st26{fill:url(#SVGID_27_);}
	.st27{fill:url(#SVGID_28_);}
	.st28{fill:url(#SVGID_29_);}
	.st29{fill:url(#SVGID_30_);}
	.st30{fill:url(#SVGID_31_);}
	.st31{fill:url(#SVGID_32_);}
	.st32{fill:url(#SVGID_33_);}
	.st33{fill:url(#SVGID_34_);}
	.st34{fill:url(#SVGID_35_);}
	.st35{fill:url(#SVGID_36_);}
	.st36{fill:url(#SVGID_37_);}
	.st37{fill:url(#SVGID_38_);}
	.st38{fill:url(#SVGID_39_);}
	.st39{fill:url(#SVGID_40_);}
	.st40{fill:url(#SVGID_41_);}
	.st41{fill:url(#SVGID_42_);}
	.st42{fill:url(#SVGID_43_);}
	.st43{fill:url(#SVGID_44_);}
	.st44{fill:url(#SVGID_45_);}
	.st45{fill:url(#SVGID_46_);}
	.st46{fill:url(#SVGID_47_);}
	.st47{fill:url(#SVGID_48_);}
	.st48{fill:url(#SVGID_49_);}
	.st49{fill:url(#SVGID_50_);}
	.st50{fill:url(#SVGID_51_);}
	.st51{fill:url(#SVGID_52_);}
	.st52{fill:url(#SVGID_53_);}
	.st53{fill:url(#SVGID_54_);}
	.st54{fill:url(#SVGID_55_);}
	.st55{fill:url(#SVGID_56_);}
	.st56{fill:url(#SVGID_57_);}
	.st57{fill:url(#SVGID_58_);}
	.st58{fill:url(#SVGID_59_);}
	.st59{fill:url(#SVGID_60_);}
	.st60{fill:url(#SVGID_61_);}
	.st61{fill:url(#SVGID_62_);}
	.st62{fill:url(#SVGID_63_);}
	.st63{fill:url(#SVGID_64_);}
	.st64{fill:url(#SVGID_65_);}
	.st65{fill:url(#SVGID_66_);}
	.st66{fill:url(#SVGID_67_);}
	.st67{fill:url(#SVGID_68_);}
	.st68{fill:url(#SVGID_69_);}
	.st69{fill:url(#SVGID_70_);}
	.st70{fill:url(#SVGID_71_);}
	.st71{fill:url(#SVGID_72_);}
	.st72{fill:url(#SVGID_73_);}
	.st73{fill:url(#SVGID_74_);}
	.st74{fill:url(#SVGID_75_);}
	.st75{fill:url(#SVGID_76_);}
	.st76{fill:url(#SVGID_77_);}
	.st77{fill:url(#SVGID_78_);}
	.st78{fill:url(#SVGID_79_);}
	.st79{fill:url(#SVGID_80_);}
	.st80{fill:none;stroke:url(#SVGID_81_);stroke-width:3;stroke-miterlimit:10;}
	.st81{fill:#392B35;}
</style>
<linearGradient id="SVGID_1_" gradientUnits="userSpaceOnUse" x1="16.6559" y1="720.7872" x2="352.3229" y2="720.7872" gradientTransform="matrix(1 0 0 1 0 -662)">
	<stop  offset="0" style="stop-color:#1D1D1B"/>
	<stop  offset="1" style="stop-color:#1D111B"/>
</linearGradient>
<path class="st0" d="M25.4,0h318.2c4.8,0,8.7,5.3,8.7,11.8v93.9c0,6.5-3.9,11.8-8.7,11.8H25.4c-4.8,0-8.7-5.3-8.7-11.8V11.8
	C16.7,5.3,20.6,0,25.4,0z"/>
<linearGradient id="SVGID_2_" gradientUnits="userSpaceOnUse" x1="327.4053" y1="744.7603" x2="335.0544" y2="744.7603" gradientTransform="matrix(1 0 0 1 8 -688)">
	<stop  offset="0" style="stop-color:#03917D"/>
	<stop  offset="1" style="stop-color:#0FBCA7"/>
</linearGradient>
<path class="st1" d="M341.6,52.2c-0.1,0.3-0.2,0.6-0.3,0.9c-0.1,0.4-0.1,0.9-0.1,1.3c0,0.3-0.1,0.8-0.1,1.3
	c-0.1,0.3-0.1,0.8-0.2,1.5c-0.1,0.6-0.1,1-0.2,1.3c0,0.4-0.1,0.7-0.2,1.1c0,0-0.1,0.1-0.3,0.3c-0.3,0.2-0.6,0.3-0.9,0.5
	c-0.5,0.2-1,0.4-1.5,0.5c-0.7,0.2-1.4,0.3-2.2,0.3c-0.1,0-0.1,0-0.1,0.1v0.1c0,0,0.1,0.1,0.1,0.1c0.1,0,0.2,0,0.3,0.1
	c0.7,0.1,1.4,0.2,2.2,0.2c0.6,0,1.2-0.1,1.8-0.3c0.5-0.3,1.1-0.7,1.5-1.1c0.5-0.6,0.9-1.3,1.2-2.1c0.2-0.5,0.3-0.9,0.4-1.5
	c0.1-0.5,0.1-1.1,0.1-1.5c-0.1-0.5-0.1-1.1-0.3-1.6c-0.2-0.6-0.5-1.1-0.7-1.7l-0.1-0.1l-0.1-0.1c-0.1,0-0.1,0.1-0.2,0.2
	C341.7,52,341.6,52.1,341.6,52.2z M341.8,54.6c0-0.3,0.1-0.5,0.1-0.7c0.3,0.5,0.5,1.1,0.6,1.7c0.1,0.5,0.1,1-0.1,1.5
	c-0.1,0.4-0.3,0.9-0.5,1.2c-0.3,0.4-0.6,0.7-0.9,1c0.1-0.4,0.3-0.9,0.3-1.3c0.1-0.5,0.2-0.9,0.3-1.4c0.1-0.5,0.1-1,0.2-1.4
	C341.7,55.1,341.8,54.8,341.8,54.6L341.8,54.6z"/>
<linearGradient id="SVGID_3_" gradientUnits="userSpaceOnUse" x1="326.0773" y1="751.9561" x2="327.4053" y2="751.9561" gradientTransform="matrix(1 0 0 1 8 -688)">
	<stop  offset="0" style="stop-color:#03917D"/>
	<stop  offset="1" style="stop-color:#0FBCA7"/>
</linearGradient>
<path class="st2" d="M335,62.8c-0.3,0-0.5,0.2-0.5,0.6l-0.1,0.1l0.1,0.1l0.1-0.1c0,0,0.1,0,0.1-0.1l0,0c0.1-0.1,0.1-0.1,0.3-0.1
	c0.1,0,0.3,0.1,0.3,0.3s-0.3,0.6-0.8,1.2c-0.1,0.1-0.1,0.2-0.1,0.2v0.1c0,0,0.1-0.1,0.3-0.2c0.3-0.3,0.5-0.5,0.7-0.9
	c0.2-0.3,0.3-0.5,0.3-0.9C335.4,62.9,335.3,62.8,335,62.8z"/>
<linearGradient id="SVGID_4_" gradientUnits="userSpaceOnUse" x1="329.7418" y1="751.1827" x2="330.7747" y2="751.1827" gradientTransform="matrix(1 0 0 1 8 -688)">
	<stop  offset="0" style="stop-color:#03917D"/>
	<stop  offset="1" style="stop-color:#0FBCA7"/>
</linearGradient>
<path class="st3" d="M338,62.8L338,62.8L338,62.8L338,62.8c0.1,0,0.2-0.1,0.3-0.1s0.2,0.1,0.2,0.1c0,0,0,0,0,0.1
	c-0.1,0.4-0.3,0.7-0.6,1c-0.1,0.1-0.2,0.1-0.2,0.1v0.1c0,0,0.1-0.1,0.2-0.1c0.2-0.2,0.4-0.4,0.6-0.7c0.1-0.2,0.2-0.4,0.2-0.7
	s-0.1-0.4-0.3-0.4C338.2,62.2,338.1,62.4,338,62.8z"/>
<linearGradient id="SVGID_5_" gradientUnits="userSpaceOnUse" x1="327.3562" y1="748.1228" x2="328.365" y2="748.1228" gradientTransform="matrix(1 0 0 1 8 -688)">
	<stop  offset="0" style="stop-color:#03917D"/>
	<stop  offset="1" style="stop-color:#0FBCA7"/>
</linearGradient>
<path class="st4" d="M335.3,61c0,0,0.1,0,0.1-0.1c0.3-0.2,0.5-0.4,0.6-0.7c0.1-0.2,0.2-0.4,0.3-0.7c0-0.3-0.1-0.4-0.3-0.4
	c-0.3,0-0.4,0.1-0.5,0.5v0.1h0.1l0.1-0.1c0.1,0,0.1-0.1,0.2-0.1c0.1,0,0.2,0.1,0.2,0.2s-0.2,0.5-0.6,0.9L335.3,61z"/>
<linearGradient id="SVGID_6_" gradientUnits="userSpaceOnUse" x1="331.1928" y1="747.1476" x2="332.2016" y2="747.1476" gradientTransform="matrix(1 0 0 1 8 -688)">
	<stop  offset="0" style="stop-color:#03917D"/>
	<stop  offset="1" style="stop-color:#0FBCA7"/>
</linearGradient>
<path class="st5" d="M339.2,60.1c0,0,0.1-0.1,0.1-0.1c0.3-0.1,0.5-0.4,0.6-0.7c0.1-0.2,0.2-0.4,0.3-0.7c0-0.3-0.1-0.4-0.3-0.4
	c-0.3,0-0.4,0.2-0.5,0.5v0.1h0.1l0.1-0.1c0.1,0,0.1-0.1,0.2-0.1c0.1,0,0.2,0.1,0.2,0.3c-0.1,0.3-0.3,0.7-0.6,0.9
	C339.2,60,339.2,60.1,339.2,60.1z"/>
<linearGradient id="SVGID_7_" gradientUnits="userSpaceOnUse" x1="329.5942" y1="747.9349" x2="330.6271" y2="747.9349" gradientTransform="matrix(1 0 0 1 8 -688)">
	<stop  offset="0" style="stop-color:#03917D"/>
	<stop  offset="1" style="stop-color:#0FBCA7"/>
</linearGradient>
<path class="st6" d="M337.6,60.8L337.6,60.8c0,0.1,0.1,0,0.2-0.1c0.3-0.2,0.5-0.4,0.7-0.7c0.1-0.2,0.2-0.4,0.2-0.7s-0.1-0.4-0.3-0.4
	c-0.2,0-0.4,0.1-0.5,0.5v0.1h0.1c0,0,0.1,0,0.1-0.1l0,0c0.1,0,0.1-0.1,0.2-0.1c0.1,0,0.2,0.1,0.2,0.3c0,0.1-0.2,0.4-0.7,0.9
	C337.6,60.8,337.6,60.8,337.6,60.8z"/>
<linearGradient id="SVGID_8_" gradientUnits="userSpaceOnUse" x1="332.3978" y1="738.405" x2="333.6802" y2="738.405" gradientTransform="matrix(1 0 0 1 8 -688)">
	<stop  offset="0" style="stop-color:#03917D"/>
	<stop  offset="1" style="stop-color:#0FBCA7"/>
</linearGradient>
<path class="st7" d="M340.4,51.3c0,0.4,0.1,0.5,0.4,0.5c0.3,0,0.5-0.2,0.7-0.4c0.1-0.2,0.1-0.5,0.1-0.7c0-0.4-0.2-0.8-0.6-1
	c0.1-0.2,0.1-0.5,0.3-0.7V49c0,0,0-0.1-0.1-0.1c-0.1,0-0.1,0.1-0.2,0.1c-0.3,0.6-0.5,1.3-0.7,2C340.4,51.1,340.4,51.2,340.4,51.3z
	 M340.8,50.3c0.4,0.3,0.6,0.4,0.6,0.5c-0.1,0.1-0.2,0.2-0.3,0.3c-0.1,0.1-0.3,0.1-0.3,0.1s-0.1-0.1-0.1-0.2
	C340.7,50.8,340.8,50.5,340.8,50.3z"/>
<linearGradient id="SVGID_9_" gradientUnits="userSpaceOnUse" x1="325.0443" y1="743.2134" x2="326.0772" y2="743.2134" gradientTransform="matrix(1 0 0 1 8 -688)">
	<stop  offset="0" style="stop-color:#03917D"/>
	<stop  offset="1" style="stop-color:#0FBCA7"/>
</linearGradient>
<path class="st8" d="M333.3,54.9L333.3,54.9L333.3,54.9L333.3,54.9c0.1,0,0.2-0.1,0.3-0.1c0.1,0,0.2,0.1,0.2,0.2
	c0,0.1-0.2,0.5-0.6,0.9l-0.1,0.1c0.1,0,0.1-0.1,0.2-0.1c0.3-0.2,0.5-0.4,0.6-0.7c0.1-0.2,0.2-0.4,0.2-0.7s-0.1-0.4-0.3-0.4
	c-0.3,0-0.4,0.1-0.5,0.5L333.3,54.9z"/>
<linearGradient id="SVGID_10_" gradientUnits="userSpaceOnUse" x1="324.7" y1="741.5994" x2="325.733" y2="741.5994" gradientTransform="matrix(1 0 0 1 8 -688)">
	<stop  offset="0" style="stop-color:#03917D"/>
	<stop  offset="1" style="stop-color:#0FBCA7"/>
</linearGradient>
<path class="st9" d="M333.5,53.8c0.1-0.2,0.3-0.4,0.3-0.7c0-0.3-0.1-0.4-0.3-0.4c-0.3,0-0.4,0.1-0.5,0.5v0.1l-0.1,0.1h0.1l0.1-0.1
	c0.1,0,0.1-0.1,0.2-0.1c0.1,0,0.2,0.1,0.2,0.1c0,0,0,0,0,0.1c0,0.1-0.2,0.5-0.7,1l-0.1,0.1l0.1-0.1C333.1,54.2,333.3,54,333.5,53.8z
	"/>
<linearGradient id="SVGID_11_" gradientUnits="userSpaceOnUse" x1="323.5681" y1="745.1104" x2="325.4129" y2="745.1104" gradientTransform="matrix(1 0 0 1 8 -688)">
	<stop  offset="0" style="stop-color:#03917D"/>
	<stop  offset="1" style="stop-color:#0FBCA7"/>
</linearGradient>
<path class="st10" d="M331.8,56.5c-0.1,0.1-0.1,0.2-0.2,0.3c0,0.1-0.1,0.3-0.1,0.4s0,0.2,0.1,0.3c0.1,0.1,0.1,0.2,0.2,0.3
	c0.1,0.1,0.2,0.1,0.3,0.2c0.1,0.1,0.3,0.1,0.3,0.1c0.1,0,0.2,0,0.3-0.1c0.1,0,0.2-0.1,0.3-0.2c0.1-0.1,0.2-0.1,0.2-0.3v-0.1
	c0.1-0.1,0.1-0.2,0.1-0.3c0-0.1-0.1-0.3-0.1-0.4c-0.1-0.1-0.1-0.2-0.2-0.3c-0.1-0.1-0.2-0.2-0.3-0.3c-0.1-0.1-0.2-0.1-0.3-0.1
	c-0.1,0-0.3,0-0.3,0.1C332,56.3,331.9,56.3,331.8,56.5z"/>
<linearGradient id="SVGID_12_" gradientUnits="userSpaceOnUse" x1="330.2934" y1="734.9885" x2="332.6267" y2="734.9885" gradientTransform="matrix(1 0 0 1 8 -688)">
	<stop  offset="0" style="stop-color:#03917D"/>
	<stop  offset="1" style="stop-color:#0FBCA7"/>
</linearGradient>
<path class="st11" d="M338.4,46c0.1,0.3,0.1,0.5,0.1,0.7c0.1,0.3,0.2,0.7,0.3,1c0.1,0.3,0.2,0.6,0.3,0.9c0.1,0.3,0.4,0.5,0.7,0.7
	c0.1,0.1,0.4,0.1,0.5-0.1c0.2-0.1,0.3-0.3,0.2-0.7c-0.1-0.4-0.1-0.7-0.3-1.1c-0.1-0.1-0.1-0.1-0.1,0v0.5c0,0.1-0.1,0.3-0.1,0.4
	c-0.1,0.1-0.3,0.1-0.5-0.1c-0.2-0.1-0.4-0.4-0.5-0.6c-0.2-0.6-0.4-1.1-0.5-1.5c-0.1-0.4-0.1-0.7-0.2-1.1l-0.1-0.1
	c0-0.2,0-0.3-0.1-0.3V45c0,0.2,0,0.4,0.1,0.6L338.4,46L338.4,46z"/>
<linearGradient id="SVGID_13_" gradientUnits="userSpaceOnUse" x1="324.2819" y1="733.6974" x2="325.3149" y2="733.6974" gradientTransform="matrix(1 0 0 1 8 -688)">
	<stop  offset="0" style="stop-color:#03917D"/>
	<stop  offset="1" style="stop-color:#0FBCA7"/>
</linearGradient>
<path class="st12" d="M333,45.8c0.1-0.2,0.3-0.4,0.3-0.7s-0.1-0.4-0.3-0.4s-0.4,0.1-0.5,0.5v0.1h0.1c0.1-0.1,0.1-0.1,0.2-0.1
	c0.1,0,0.2,0.1,0.2,0.3c0,0.1-0.2,0.4-0.6,0.9c-0.1,0.1-0.1,0.2-0.1,0.2s0.1-0.1,0.1-0.2C332.7,46.3,332.9,46.1,333,45.8z"/>
<linearGradient id="SVGID_14_" gradientUnits="userSpaceOnUse" x1="326.1265" y1="741.5658" x2="327.971" y2="741.5658" gradientTransform="matrix(1 0 0 1 8 -688)">
	<stop  offset="0" style="stop-color:#03917D"/>
	<stop  offset="1" style="stop-color:#0FBCA7"/>
</linearGradient>
<path class="st13" d="M334.4,54.2c0.1,0.1,0.2,0.1,0.3,0.2c0.1,0.1,0.2,0.1,0.3,0.1s0.3,0,0.3-0.1c0.1-0.1,0.2-0.1,0.3-0.2l0.1-0.3
	h0.1c0.1-0.1,0.1-0.3,0.1-0.4s0-0.2-0.1-0.3c-0.1-0.1-0.1-0.2-0.2-0.3c-0.1-0.1-0.2-0.1-0.3-0.2c-0.1-0.1-0.3-0.1-0.3-0.1
	c-0.1,0-0.3,0-0.3,0.1s-0.2,0.1-0.3,0.2c-0.1,0.1-0.2,0.2-0.2,0.3c-0.1,0.1-0.1,0.2-0.1,0.3s0.1,0.3,0.1,0.4
	C334.3,54,334.3,54.2,334.4,54.2z"/>
<linearGradient id="SVGID_15_" gradientUnits="userSpaceOnUse" x1="328.8318" y1="732.8904" x2="329.8401" y2="732.8904" gradientTransform="matrix(1 0 0 1 8 -688)">
	<stop  offset="0" style="stop-color:#03917D"/>
	<stop  offset="1" style="stop-color:#0FBCA7"/>
</linearGradient>
<path class="st14" d="M337.6,45c0.1-0.2,0.2-0.5,0.3-0.7c0-0.3-0.1-0.4-0.3-0.4c-0.2,0-0.4,0.1-0.5,0.5v0.2l0.1-0.1h0.1
	c0.1,0,0.1-0.1,0.2-0.1c0.1,0,0.2,0.1,0.2,0.1c0,0,0,0,0,0.1c0,0.1-0.2,0.5-0.6,0.9c-0.1,0.1-0.1,0.2-0.1,0.2s0.1,0,0.1-0.1
	C337.2,45.6,337.4,45.4,337.6,45z"/>
<linearGradient id="SVGID_16_" gradientUnits="userSpaceOnUse" x1="328.4871" y1="735.0622" x2="330.3077" y2="735.0622" gradientTransform="matrix(1 0 0 1 8 -688)">
	<stop  offset="0" style="stop-color:#03917D"/>
	<stop  offset="1" style="stop-color:#0FBCA7"/>
</linearGradient>
<path class="st15" d="M336.8,47.8c0.1,0.1,0.1,0.1,0.3,0.1c0.1,0.1,0.3,0.1,0.3,0.1c0.1,0,0.3-0.1,0.3-0.1c0.1,0,0.2-0.1,0.3-0.1
	c0-0.1,0.1-0.2,0.1-0.3l0.1-0.1c0.1-0.1,0.1-0.3,0.1-0.3c0-0.1,0-0.2-0.1-0.3c-0.1-0.2-0.1-0.3-0.2-0.3s-0.2-0.1-0.3-0.2
	c-0.1-0.1-0.2-0.1-0.3-0.1c-0.1,0-0.3,0-0.3,0.1s-0.2,0.1-0.3,0.2c-0.1,0.1-0.2,0.2-0.2,0.3c-0.1,0.1-0.1,0.2-0.1,0.3s0,0.3,0.1,0.3
	C336.6,47.6,336.7,47.7,336.8,47.8z"/>
<linearGradient id="SVGID_17_" gradientUnits="userSpaceOnUse" x1="323.4703" y1="735.5132" x2="325.5116" y2="735.5132" gradientTransform="matrix(1 0 0 1 8 -688)">
	<stop  offset="0" style="stop-color:#03917D"/>
	<stop  offset="1" style="stop-color:#0FBCA7"/>
</linearGradient>
<path class="st16" d="M332.5,48.7C332.5,48.7,332.6,48.7,332.5,48.7c0.1-0.2,0.1-0.4,0.2-0.7c0.1-0.7,0.2-1,0.3-1
	c0.1,0,0.1,0.1,0.2,0.1c0.1,0.1,0.1,0.1,0.1,0.1s0.1-0.1,0.1-0.1c0-0.1,0.1-0.1,0.1-0.2s-0.1-0.1-0.1-0.2c-0.1-0.1-0.1-0.2-0.2-0.2
	c-0.1,0-0.3,0.1-0.4,0.5c-0.1,0.3-0.1,0.7-0.2,1l-0.1,0.1v-0.1c-0.1-0.3-0.1-0.6-0.3-0.9c-0.1-0.2-0.3-0.3-0.5-0.3l-0.1,0.2
	c-0.1,0.1-0.1,0.1-0.1,0.3c0,0,0.1,0.1,0.1,0.2c0.1,0.1,0.2,0.1,0.2,0.1c0.1,0,0.1,0,0.1-0.1s0-0.1,0-0.1c0.1,0,0.2,0.2,0.3,0.5
	c0.1,0.2,0.1,0.4,0.2,0.7C332.4,48.7,332.4,48.7,332.5,48.7z"/>
<linearGradient id="SVGID_18_" gradientUnits="userSpaceOnUse" x1="328.1997" y1="738.5732" x2="329.6928" y2="738.5732" gradientTransform="matrix(1 0 0 1 8 -688)">
	<stop  offset="0" style="stop-color:#03917D"/>
	<stop  offset="1" style="stop-color:#0FBCA7"/>
</linearGradient>
<path class="st17" d="M336.5,52.8c0.1,0.3,0.3,0.3,0.5,0.2c0.2,0,0.3-0.2,0.5-0.5c0.1-0.3,0.1-0.7,0.1-1.1c0-0.1-0.1-0.1-0.1,0
	c0,0.1-0.1,0.2-0.1,0.3c0,0.1-0.1,0.1-0.1,0.2c-0.1,0.1-0.1,0.3-0.3,0.3c-0.2,0-0.3-0.1-0.4-0.3c-0.1-0.3-0.3-0.5-0.3-0.8
	c0-0.6,0.1-1.1,0.1-1.5c0.1-0.6,0.2-1,0.3-1.2l0.1-0.3c-0.1,0.1-0.1,0.1-0.1,0.2l-0.1,0.1c-0.1,0.2-0.2,0.3-0.2,0.5
	c0,0.1,0,0.1-0.1,0.3c-0.1,0.3-0.1,0.5-0.2,0.7c-0.1,0.3-0.1,0.7-0.1,1c-0.1,0.3,0,0.7,0.1,0.9C336.3,52.2,336.3,52.5,336.5,52.8z"
	/>
<linearGradient id="SVGID_19_" gradientUnits="userSpaceOnUse" x1="319.3878" y1="727.1741" x2="322.0931" y2="727.1741" gradientTransform="matrix(1 0 0 1 8 -688)">
	<stop  offset="0" style="stop-color:#03917D"/>
	<stop  offset="1" style="stop-color:#0FBCA7"/>
</linearGradient>
<path class="st18" d="M330.1,40.6c0,0-0.1,0-0.2,0.1c-0.5,0.1-1,0.3-1.5,0.3c-0.5,0-0.7-0.1-0.7-0.3c0-0.1,0.1-0.3,0.1-0.4
	c0.1-0.1,0.3-0.3,0.3-0.4c0.1-0.1,0.3-0.3,0.3-0.4c0.3-0.2,0.5-0.5,0.6-0.9c0-0.1-0.1-0.3-0.3-0.3c0,0,0.1,0,0.1-0.1l0,0
	c0.1-0.1,0.3-0.3,0.4-0.5c0.1-0.1,0.2-0.3,0.2-0.5s-0.1-0.3-0.3-0.3c-0.1,0-0.2,0.1-0.3,0.3v0.1h0.1v-0.1c0.1-0.1,0.1-0.1,0.2-0.1
	s0.1,0.1,0.1,0.2c-0.1,0.3-0.2,0.5-0.4,0.7c0,0-0.1,0-0.1,0.1l0,0l-0.1,0.1c-0.1-0.1-0.3-0.1-0.5-0.1c-0.2,0-0.4,0.1-0.5,0.1
	c-0.1,0.1-0.2,0.3-0.3,0.5l0,0l-0.1,0.1h0.1c0.1-0.1,0.3-0.1,0.4-0.1c0.2,0,0.4,0.1,0.6,0.1c0.1,0,0.1,0.1,0.1,0.1
	c-0.1,0.1-0.4,0.4-0.7,0.8v0.1c-0.3,0.3-0.4,0.7-0.4,1.1c0,0.2,0.1,0.3,0.2,0.5c0.1,0.1,0.3,0.2,0.5,0.2c0.7,0,1.3-0.2,1.8-0.7
	L330.1,40.6z"/>
<linearGradient id="SVGID_20_" gradientUnits="userSpaceOnUse" x1="318.9697" y1="731.3437" x2="320.2978" y2="731.3437" gradientTransform="matrix(1 0 0 1 8 -688)">
	<stop  offset="0" style="stop-color:#03917D"/>
	<stop  offset="1" style="stop-color:#0FBCA7"/>
</linearGradient>
<path class="st19" d="M328,43.5c0.2-0.3,0.3-0.5,0.3-0.9c0-0.4-0.1-0.5-0.4-0.5c-0.3,0-0.5,0.2-0.6,0.7v0.1h0.1v-0.1
	c0.1,0,0.2-0.1,0.3-0.1c0.1,0,0.3,0.1,0.3,0.2v0.1c0,0.2-0.3,0.6-0.8,1.2c-0.1,0.1-0.1,0.2-0.2,0.3l0.2-0.2
	C327.5,44.2,327.8,43.9,328,43.5z"/>
<linearGradient id="SVGID_21_" gradientUnits="userSpaceOnUse" x1="321.7242" y1="725.6274" x2="322.708" y2="725.6274" gradientTransform="matrix(1 0 0 1 8 -688)">
	<stop  offset="0" style="stop-color:#03917D"/>
	<stop  offset="1" style="stop-color:#0FBCA7"/>
</linearGradient>
<path class="st20" d="M330.7,37.1c0-0.3-0.1-0.4-0.3-0.4c-0.2,0-0.4,0.1-0.5,0.5c0,0.1-0.1,0.1-0.1,0.1v0.1h0.1l0.1-0.1
	c0.1,0,0.1-0.1,0.2-0.1s0.2,0.1,0.2,0.1c0,0,0,0,0,0.1c-0.1,0.3-0.3,0.7-0.6,0.9c-0.1,0.1-0.1,0.1-0.1,0.2c0.1,0,0.1-0.1,0.2-0.1
	c0.2-0.2,0.4-0.4,0.6-0.7C330.6,37.6,330.7,37.4,330.7,37.1z"/>
<linearGradient id="SVGID_22_" gradientUnits="userSpaceOnUse" x1="320.8634" y1="727.6113" x2="321.8963" y2="727.6113" gradientTransform="matrix(1 0 0 1 8 -688)">
	<stop  offset="0" style="stop-color:#03917D"/>
	<stop  offset="1" style="stop-color:#0FBCA7"/>
</linearGradient>
<path class="st21" d="M328.9,40.5L328.9,40.5l0.1-0.1c0.3-0.2,0.5-0.4,0.6-0.7c0.1-0.2,0.3-0.4,0.3-0.7s-0.1-0.4-0.3-0.4
	c-0.3,0-0.4,0.2-0.5,0.5l-0.1,0.1l0,0h0.1c0,0,0.1,0,0.1-0.1c0.1,0,0.1-0.1,0.2-0.1c0.1,0,0.2,0.1,0.2,0.3c-0.1,0.3-0.3,0.7-0.6,0.9
	C328.9,40.5,328.9,40.5,328.9,40.5z"/>
<linearGradient id="SVGID_23_" gradientUnits="userSpaceOnUse" x1="318.1581" y1="728.2838" x2="319.314" y2="728.2838" gradientTransform="matrix(1 0 0 1 8 -688)">
	<stop  offset="0" style="stop-color:#03917D"/>
	<stop  offset="1" style="stop-color:#0FBCA7"/>
</linearGradient>
<path class="st22" d="M326.2,41.3c0,0,0.1-0.1,0.2-0.1c0.3-0.2,0.5-0.5,0.7-0.7c0.1-0.2,0.2-0.5,0.3-0.7c0-0.3-0.1-0.5-0.3-0.5
	c-0.3,0-0.5,0.2-0.5,0.5V40l0.1-0.1h0.1c0.1-0.1,0.1-0.1,0.2-0.1c0.1,0,0.3,0.1,0.3,0.3c0,0.2-0.3,0.5-0.7,1.1
	C326.2,41.2,326.2,41.3,326.2,41.3z"/>
<linearGradient id="SVGID_24_" gradientUnits="userSpaceOnUse" x1="323.1999" y1="724.7279" x2="324.286" y2="724.7279" gradientTransform="matrix(1 0 0 1 8 -688)">
	<stop  offset="0" style="stop-color:#03917D"/>
	<stop  offset="1" style="stop-color:#0FBCA7"/>
</linearGradient>
<path class="st23" d="M331.9,35.5C332,35.5,331.9,35.5,331.9,35.5C331.9,35.5,331.9,35.5,331.9,35.5c-0.1-0.1-0.2,0-0.2,0.1
	c-0.3,0.5-0.4,1.1-0.5,1.7v0.2c0,0.3,0.1,0.5,0.3,0.5c0.3,0,0.5-0.1,0.6-0.3c0.1-0.2,0.1-0.3,0.1-0.5c0-0.3-0.2-0.7-0.5-0.9
	C331.8,35.9,331.9,35.7,331.9,35.5L331.9,35.5z M332.1,37.1c-0.1,0.1-0.1,0.1-0.3,0.2c-0.1,0.1-0.3,0.1-0.3,0.1s-0.1-0.1-0.1-0.1
	c0,0,0,0,0-0.1c0-0.2,0.1-0.5,0.2-0.7C332,36.8,332.1,37,332.1,37.1z"/>
<linearGradient id="SVGID_25_" gradientUnits="userSpaceOnUse" x1="317.0759" y1="730.2341" x2="319.437" y2="730.2341" gradientTransform="matrix(1 0 0 1 8 -688)">
	<stop  offset="0" style="stop-color:#03917D"/>
	<stop  offset="1" style="stop-color:#0FBCA7"/>
</linearGradient>
<path class="st24" d="M325.5,42.3C325.6,42.3,325.6,42.3,325.5,42.3c0.1-0.1,0.1-0.1,0.1-0.1l0,0c0.1,0,0.2,0.2,0.3,0.5
	c0.1,0.3,0.1,0.5,0.2,0.7c0,0.1,0,0.1,0.1,0.1c0,0,0.1-0.1,0.1-0.1c0.1-0.2,0.1-0.5,0.1-0.7c0.1-0.7,0.3-1.1,0.5-1.1
	c0.1,0,0.1,0.1,0.2,0.1c0.1,0.1,0.1,0.1,0.1,0.1s0.1-0.1,0.1-0.2c0-0.1,0.1-0.1,0.1-0.2s-0.1-0.2-0.1-0.3c-0.1-0.1-0.1-0.2-0.3-0.2
	c-0.1,0-0.3,0.2-0.5,0.5c-0.1,0.3-0.2,0.7-0.3,1.1v0.1h-0.1v-0.1c-0.1-0.3-0.1-0.7-0.3-1c-0.1-0.2-0.3-0.4-0.6-0.4l-0.1,0.3
	c-0.1,0.1-0.1,0.2-0.1,0.3c0,0.1,0.1,0.1,0.2,0.3C325.3,42.2,325.4,42.3,325.5,42.3z"/>
<linearGradient id="SVGID_26_" gradientUnits="userSpaceOnUse" x1="324.8475" y1="752.8976" x2="325.8563" y2="752.8976" gradientTransform="matrix(1 0 0 1 8 -688)">
	<stop  offset="0" style="stop-color:#03917D"/>
	<stop  offset="1" style="stop-color:#0FBCA7"/>
</linearGradient>
<path class="st25" d="M333.1,64.5L333.1,64.5L333.1,64.5L333.1,64.5v0.1V64.5l0.1,0.1c0.1,0,0.1-0.1,0.2-0.1c0.1,0,0.2,0.1,0.2,0.1
	c0,0,0,0,0,0.1c0,0.1-0.2,0.5-0.7,0.9c-0.1,0.1-0.1,0.1-0.1,0.2l0.1-0.1c0.3-0.2,0.5-0.5,0.6-0.7c0.1-0.2,0.2-0.4,0.3-0.7
	c0-0.3-0.1-0.4-0.3-0.4C333.3,64,333.2,64.2,333.1,64.5z"/>
<linearGradient id="SVGID_27_" gradientUnits="userSpaceOnUse" x1="321.0561" y1="722.6011" x2="323.5688" y2="722.6011" gradientTransform="matrix(1 0 0 1 8 -688)">
	<stop  offset="0" style="stop-color:#03917D"/>
	<stop  offset="1" style="stop-color:#0FBCA7"/>
</linearGradient>
<path class="st26" d="M330.2,35.9L330.2,35.9c-0.1,0.1-0.3,0.1-0.5,0.3c-0.2,0.1-0.3,0.1-0.5,0.3c-0.1,0.1-0.1,0.1,0.1,0.1
	c0.1,0,0.3,0,0.4-0.1c0.1,0,0.3,0,0.4-0.1c0.1,0,0.1-0.1,0.1-0.1c0.1,0,0.1,0,0.2-0.1h0.2c0.1,0,0.1-0.1,0.3-0.2
	c0.1-0.1,0.3-0.3,0.3-0.4c0-0.1,0.1-0.2,0.1-0.3c0.1-0.1,0.1-0.2,0.1-0.3c0.1-0.1,0.1-0.3,0.1-0.3c0-0.1-0.1-0.3-0.2-0.3
	c-0.1-0.1-0.3-0.1-0.5-0.1h-0.5c-0.1-0.1-0.2-0.1-0.2-0.2c0-0.1,0-0.1,0.1-0.1l0.1-0.1c0-0.1,0-0.1,0.1-0.1s0.1-0.1,0.1-0.1l0.1-0.1
	c0.1-0.1,0.1-0.1,0.1-0.2l0.1-0.1c0.1,0,0.2,0,0.1,0.1c0,0.1,0.1,0.1,0.1,0.1c0.1,0,0.1-0.1,0.3-0.3c0.1-0.1,0.1-0.3,0.1-0.5
	c0-0.1,0-0.2-0.1-0.3c-0.1,0-0.1-0.1-0.2-0.1c-0.1,0-0.3,0.1-0.4,0.1c-0.2,0.1-0.3,0.3-0.5,0.5l-0.1,0.1c-0.1,0.2-0.3,0.4-0.4,0.6
	c-0.1,0.2-0.1,0.5-0.2,0.7c0,0.1,0.1,0.3,0.2,0.4c0.1,0.1,0.3,0.1,0.5,0.1h0.4c0.1,0,0.2,0,0.2,0.1s-0.1,0.1-0.3,0.3
	C330.4,35.8,330.3,35.9,330.2,35.9z"/>
<linearGradient id="SVGID_28_" gradientUnits="userSpaceOnUse" x1="315.748" y1="732.0162" x2="317.2037" y2="732.0162" gradientTransform="matrix(1 0 0 1 8 -688)">
	<stop  offset="0" style="stop-color:#03917D"/>
	<stop  offset="1" style="stop-color:#0FBCA7"/>
</linearGradient>
<path class="st27" d="M324.8,42.7c-0.3,0-0.5,0.3-0.7,0.7v0.2l0.1-0.1c0,0,0.1,0,0.1-0.1l0,0c0.1,0,0.2-0.1,0.3-0.1
	c0.1,0,0.3,0.1,0.3,0.2v0.1c0,0.3-0.3,0.7-0.9,1.4c-0.1,0.1-0.1,0.1-0.1,0.2v0.1c0.1-0.1,0.2-0.1,0.3-0.2c0.3-0.3,0.7-0.6,0.9-1
	c0.2-0.3,0.3-0.6,0.3-0.9C325.2,42.9,325.1,42.7,324.8,42.7z"/>
<linearGradient id="SVGID_29_" gradientUnits="userSpaceOnUse" x1="322.0931" y1="749.4005" x2="323.1019" y2="749.4005" gradientTransform="matrix(1 0 0 1 8 -688)">
	<stop  offset="0" style="stop-color:#03917D"/>
	<stop  offset="1" style="stop-color:#0FBCA7"/>
</linearGradient>
<path class="st28" d="M330.3,62.2c0.2-0.2,0.4-0.4,0.5-0.7c0.1-0.2,0.2-0.5,0.3-0.7c0-0.2-0.1-0.3-0.3-0.3c-0.3,0-0.4,0.1-0.5,0.5
	v0.1l0.1-0.1h0.1c0.1,0,0.1-0.1,0.2-0.1c0.1,0,0.2,0.1,0.2,0.2C330.8,61.4,330.6,61.7,330.3,62.2c-0.1,0-0.2,0.1-0.2,0.1
	C330.2,62.3,330.2,62.3,330.3,62.2z"/>
<linearGradient id="SVGID_30_" gradientUnits="userSpaceOnUse" x1="319.6581" y1="749.7565" x2="321.9456" y2="749.7565" gradientTransform="matrix(1 0 0 1 8 -688)">
	<stop  offset="0" style="stop-color:#03917D"/>
	<stop  offset="1" style="stop-color:#0FBCA7"/>
</linearGradient>
<path class="st29" d="M329.9,60.7c0-0.1,0.1-0.1,0.1-0.2c0-0.1,0-0.2-0.1-0.3c0-0.1-0.1-0.2-0.2-0.3c-0.1-0.1-0.1-0.1-0.3-0.1
	c-0.1,0-0.1,0-0.2,0.1c-0.1,0-0.1,0.1-0.1,0.1s-0.1,0.2-0.1,0.3c-0.1,0.1-0.1,0.2,0,0.3c0,0.1,0.1,0.2,0.1,0.3c0,0.1,0,0.1,0.1,0.1
	c0.1,0.2,0.1,0.3,0.1,0.5c0,0.2,0.1,0.3,0.1,0.5c0,0.2-0.1,0.3-0.1,0.5c-0.1-0.3-0.2-0.7-0.3-1c-0.1-0.3-0.3-0.5-0.4-0.7
	c-0.1-0.1-0.3-0.2-0.4-0.3c-0.1,0-0.2,0-0.3,0.1c-0.1,0.1-0.1,0.2-0.2,0.3c0,0.1,0,0.3,0,0.4c0,0.1,0.1,0.1,0.1,0.2
	c0.1,0.1,0.1,0.1,0.1,0.2c0.1,0.1,0.1,0.1,0.2,0.1c0.1,0,0.2,0,0.3-0.1c0.1,0,0.1-0.1,0.1-0.2c0-0.1-0.1-0.3-0.1-0.5
	c0.1,0.1,0.2,0.2,0.3,0.3c0.1,0.1,0.1,0.3,0.1,0.3c0,0.1,0.1,0.3,0.1,0.5v0.9c0,0.1,0,0.2-0.1,0.3v0.1c0.2-0.2,0.4-0.5,0.5-0.7
	c0.1-0.3,0.2-0.5,0.2-0.7s0-0.5-0.1-0.7c-0.1-0.3-0.1-0.5-0.3-0.8c0.1,0.1,0.2,0.1,0.3,0.1C329.8,60.8,329.9,60.8,329.9,60.7z"/>
<linearGradient id="SVGID_31_" gradientUnits="userSpaceOnUse" x1="328.7334" y1="737.9679" x2="329.7421" y2="737.9679" gradientTransform="matrix(1 0 0 1 8 -688)">
	<stop  offset="0" style="stop-color:#03917D"/>
	<stop  offset="1" style="stop-color:#0FBCA7"/>
</linearGradient>
<path class="st30" d="M336.7,50.9c0.1,0,0.1-0.1,0.2-0.1c0.3-0.2,0.5-0.4,0.6-0.7c0.1-0.2,0.2-0.4,0.2-0.7s-0.1-0.4-0.3-0.4
	c-0.2,0-0.3,0.1-0.5,0.5v0.1h0.1l0.1-0.1c0.1,0,0.1-0.1,0.2-0.1c0.1,0,0.2,0.1,0.2,0.2s-0.2,0.5-0.6,0.9
	C336.8,50.7,336.7,50.8,336.7,50.9z"/>
<linearGradient id="SVGID_32_" gradientUnits="userSpaceOnUse" x1="331.906" y1="744.155" x2="332.9148" y2="744.155" gradientTransform="matrix(1 0 0 1 8 -688)">
	<stop  offset="0" style="stop-color:#03917D"/>
	<stop  offset="1" style="stop-color:#0FBCA7"/>
</linearGradient>
<path class="st31" d="M339.9,57.1l0.1-0.2c0.3-0.2,0.5-0.4,0.6-0.7c0.1-0.2,0.3-0.4,0.3-0.7c0-0.3-0.1-0.4-0.3-0.4
	c-0.3,0-0.4,0.1-0.5,0.5l-0.1,0.1v0.1h0.1c0,0,0.1,0,0.1-0.1c0.1,0,0.1-0.1,0.1-0.1c0.1,0,0.2,0.1,0.2,0.3c0,0.1-0.2,0.4-0.6,0.9
	C340,56.9,339.9,57,339.9,57.1z"/>
<linearGradient id="SVGID_33_" gradientUnits="userSpaceOnUse" x1="322.2408" y1="746.9459" x2="324.1344" y2="746.9459" gradientTransform="matrix(1 0 0 1 8 -688)">
	<stop  offset="0" style="stop-color:#03917D"/>
	<stop  offset="1" style="stop-color:#0FBCA7"/>
</linearGradient>
<path class="st32" d="M330.5,59.6c0.1,0.1,0.2,0.1,0.3,0.2c0.1,0.1,0.2,0.1,0.3,0.1c0.1,0,0.3,0,0.3-0.1c0.1,0,0.3-0.1,0.3-0.2
	c0.1-0.1,0.1-0.2,0.2-0.3c0.1-0.1,0.1-0.3,0.1-0.4s-0.1-0.3-0.1-0.3c-0.1-0.1-0.1-0.3-0.2-0.3s-0.2-0.1-0.3-0.2
	c-0.1-0.1-0.3-0.1-0.3-0.1c-0.1,0-0.3,0-0.3,0.1c-0.1,0.1-0.2,0.1-0.3,0.2c-0.1,0.1-0.1,0.3-0.2,0.3c0,0.1-0.1,0.2-0.1,0.3
	s0,0.3,0.1,0.4L330.5,59.6z"/>
<linearGradient id="SVGID_34_" gradientUnits="userSpaceOnUse" x1="317.7398" y1="745.1389" x2="331.9798" y2="745.1389" gradientTransform="matrix(1 0 0 1 8 -688)">
	<stop  offset="0" style="stop-color:#03917D"/>
	<stop  offset="1" style="stop-color:#0FBCA7"/>
</linearGradient>
<path class="st33" d="M335.5,59.1c0.1-0.1,0.1-0.1,0.3-0.1c0.1-0.1,0.3-0.2,0.3-0.3c0.1,0.1,0.3,0.2,0.5,0.3
	c0.3,0.1,0.6,0.1,0.9,0.1c0.4-0.1,0.8-0.2,1.1-0.5c0.3-0.3,0.5-0.7,0.7-1c0.2-0.5,0.3-0.9,0.5-1.3c0.1-0.5,0.2-1.1,0.2-1.6
	s0-1.1,0-1.7c-0.1-0.5-0.1-1-0.3-1.5l-0.1-0.1c0-0.1-0.1-0.1-0.1-0.2l-0.1-0.1l-0.1-0.5c-0.1-0.3-0.1-0.5-0.3-0.7
	c-0.1-0.3-0.2-0.5-0.3-0.7c-0.1-0.2-0.2-0.3-0.3-0.5c-0.1-0.1-0.2-0.2-0.3-0.2c-0.1,0-0.1,0.2-0.2,0.5c-0.1,0.5-0.1,0.9-0.1,1.3v3.6
	c0,0.5,0.1,1,0.1,1.5c0.1,0.3,0.1,0.5,0.1,0.7c0.1,0.3,0.1,0.4,0.1,0.3c0.1-0.2,0.1-0.4,0.1-0.6c0-0.2,0.1-0.6,0.1-1.1
	c0-0.5,0.1-0.9,0.1-1.3V52c0.1-0.1,0.1-0.1,0.1-0.3v-0.6c0.2,0.3,0.4,0.7,0.5,1c0.1,0.4,0.3,0.9,0.3,1.3c0.1,0.5,0.1,0.9,0.1,1.3
	s-0.1,0.8-0.2,1.2c-0.1,0.3-0.3,0.7-0.7,0.9c-0.3,0.3-0.6,0.4-0.9,0.4v0.1l-0.1-0.1h-0.1c0.1-0.2,0.1-0.3,0.2-0.5
	c0.1-0.3,0.1-0.6,0.1-0.9c0-0.3-0.1-0.5-0.3-0.7c-0.2-0.2-0.5-0.3-0.8-0.3h-0.1c0.1-0.1,0.2-0.3,0.3-0.5c0.1-0.2,0.2-0.4,0.2-0.7
	s-0.1-0.4-0.3-0.4c-0.3,0-0.4,0.1-0.5,0.5v0.2c0,0,0.1,0,0.1-0.1h0.1c0.1,0,0.1-0.1,0.2-0.1c0.1,0,0.2,0.1,0.2,0.1V54
	c-0.1,0.3-0.3,0.5-0.5,0.7c-0.4,0-0.8,0.1-1.2,0.2c-0.3,0.1-0.6,0.3-0.9,0.6c-0.2,0.3-0.3,0.6-0.3,0.9c0,0.4,0,0.8,0.1,1.2l0.1,0.1
	v0.1c0,0.1,0,0.1,0.1,0.1c0.1,0,0.1-0.1,0.3-0.2c0.1-0.1,0.2-0.2,0.3-0.3c0.1-0.1,0.2-0.1,0.3-0.1c0.1,0,0.2,0.1,0.3,0.3
	c0,0.1,0,0.1-0.2,0.2c-0.1,0.1-0.2,0.2-0.3,0.3c-0.1,0.1-0.1,0.1-0.2,0.1c-0.1,0.1-0.3,0.1-0.3,0.1c-0.1,0.1-0.2,0.2-0.3,0.3
	c-0.5,0.4-0.9,0.9-1.3,1.3c-0.4,0.4-0.7,0.9-1,1.3c-0.3,0.4-0.5,0.8-0.8,1.2c-0.3,0.3-0.5,0.7-0.7,1c-0.2,0.3-0.5,0.5-0.7,0.7
	c-0.3,0.2-0.5,0.3-0.9,0.3c-0.3,0-0.6-0.1-0.9-0.2c-0.2-0.1-0.4-0.3-0.5-0.5c-0.1-0.2-0.2-0.4-0.3-0.6c-0.1-0.2-0.1-0.5-0.1-0.7
	c0-0.5,0.1-0.9,0.4-1.3c0.5-0.9,1.3-1.7,2.1-2.5c0.1-0.1,0.1-0.2,0.3-0.3c0.3-0.2,0.5-0.4,0.7-0.7c0.1-0.1,0.2-0.2,0.2-0.3
	c0-0.1,0-0.1,0-0.1h-0.1c-0.1,0-0.2,0.1-0.3,0.1l-0.1,0.1c-0.5,0.5-0.9,0.8-1.2,1c-0.5,0.4-0.9,0.9-1.3,1.3c-0.4,0.5-0.7,0.9-1,1.5
	c-0.3,0.5-0.4,1.1-0.4,1.7c0,0.3,0.1,0.6,0.2,0.9c0.1,0.3,0.3,0.6,0.5,0.8c0.2,0.3,0.5,0.5,0.8,0.6c0.3,0.2,0.7,0.3,1.1,0.3
	c0.4,0.1,0.8-0.1,1.2-0.3c0.4-0.2,0.7-0.5,1-0.7c0.3-0.3,0.7-0.7,0.9-1.1c0.3-0.5,0.7-0.9,0.9-1.3c0.3-0.4,0.6-0.9,1-1.3
	c0.3-0.4,0.6-0.7,0.9-1c0.1-0.1,0.3-0.3,0.5-0.3c0.1-0.1,0.3-0.3,0.5-0.3C335.3,59.3,335.4,59.3,335.5,59.1z"/>
<linearGradient id="SVGID_35_" gradientUnits="userSpaceOnUse" x1="332.1027" y1="741.4986" x2="333.1356" y2="741.4986" gradientTransform="matrix(1 0 0 1 8 -688)">
	<stop  offset="0" style="stop-color:#03917D"/>
	<stop  offset="1" style="stop-color:#0FBCA7"/>
</linearGradient>
<path class="st34" d="M340.1,54.4c0.1,0,0.1-0.1,0.2-0.1c0.3-0.2,0.5-0.5,0.6-0.7c0.1-0.2,0.2-0.4,0.2-0.7s-0.1-0.4-0.3-0.4
	c-0.3,0-0.4,0.2-0.5,0.5v0.1l0.1,0.1v-0.1h0.1c0.1,0,0.1-0.1,0.2-0.1c0.1,0,0.2,0.1,0.2,0.1c0,0,0,0,0,0.1c0,0.1-0.2,0.5-0.6,0.9
	C340.2,54.4,340.1,54.4,340.1,54.4z"/>
<linearGradient id="SVGID_36_" gradientUnits="userSpaceOnUse" x1="316.6087" y1="749.4678" x2="317.9613" y2="749.4678" gradientTransform="matrix(1 0 0 1 8 -688)">
	<stop  offset="0" style="stop-color:#03917D"/>
	<stop  offset="1" style="stop-color:#0FBCA7"/>
</linearGradient>
<path class="st35" d="M325.5,60.2c-0.3,0-0.5,0.3-0.6,0.7V61h-0.1c0,0,0.1,0,0.1,0.1l0,0L325,61c0,0,0.1,0,0.1-0.1l0,0
	c0.1,0,0.2-0.1,0.3-0.1c0.2,0,0.3,0.1,0.3,0.3c0,0.2-0.3,0.7-0.8,1.3c-0.1,0.1-0.2,0.1-0.2,0.2v0.1c0.1,0,0.1-0.1,0.2-0.1
	c0.3-0.3,0.6-0.6,0.8-0.9c0.2-0.3,0.3-0.5,0.3-0.9C325.9,60.4,325.8,60.2,325.5,60.2z"/>
<linearGradient id="SVGID_37_" gradientUnits="userSpaceOnUse" x1="318.1992" y1="746.0008" x2="321.2077" y2="746.0008" gradientTransform="matrix(1 0 0 1 8 -688)">
	<stop  offset="0" style="stop-color:#03917D"/>
	<stop  offset="1" style="stop-color:#0FBCA7"/>
</linearGradient>
<path class="st36" d="M327.1,59.6c0.3-0.1,0.5-0.3,0.7-0.6c0.1-0.1,0.1-0.1-0.1-0.1c-0.1,0.1-0.1,0.1-0.3,0.1l-0.1,0.1
	c-0.1,0.1-0.3,0.1-0.4,0.1c-0.1-0.1-0.1-0.2-0.1-0.5c0.1-0.2,0.1-0.4,0.3-0.6l0.1-0.1c0.3-0.3,0.6-0.6,0.9-0.9
	c0.3-0.3,0.5-0.5,0.9-0.7h0.1c0.1-0.1,0.1-0.1,0.1-0.2c-0.1,0-0.1,0-0.1,0.1c-0.1,0-0.1,0.1-0.2,0.1c-0.1,0.1-0.3,0.1-0.5,0.3
	l-0.1,0.1c-0.2,0.1-0.4,0.3-0.5,0.3c-0.1,0.1-0.1,0.1-0.1,0.1c-0.2,0.1-0.3,0.3-0.5,0.5c-0.2,0.2-0.4,0.4-0.5,0.7
	c-0.2,0.2-0.3,0.5-0.4,0.7c-0.1,0.2,0,0.4,0.2,0.5C326.6,59.8,326.9,59.8,327.1,59.6z"/>
<linearGradient id="SVGID_38_" gradientUnits="userSpaceOnUse" x1="314.7396" y1="750.981" x2="316.6087" y2="750.981" gradientTransform="matrix(1 0 0 1 8 -688)">
	<stop  offset="0" style="stop-color:#03917D"/>
	<stop  offset="1" style="stop-color:#0FBCA7"/>
</linearGradient>
<path class="st37" d="M324.3,62.3c-0.1-0.1-0.2-0.2-0.3-0.3c-0.1-0.1-0.3-0.1-0.3-0.1c-0.1,0-0.2,0-0.3,0.1
	c-0.1,0.1-0.2,0.1-0.3,0.3c-0.1,0.1-0.1,0.2-0.2,0.3c0,0.1-0.1,0.3-0.1,0.4s0,0.3,0.1,0.3c0.1,0.1,0.1,0.2,0.2,0.3
	c0.1,0.1,0.2,0.1,0.3,0.2c0.1,0.1,0.2,0.1,0.3,0.1c0.1,0,0.3,0,0.3-0.1c0.1-0.1,0.2-0.1,0.3-0.2c0.1-0.1,0.2-0.2,0.2-0.3
	c0.1-0.1,0.1-0.3,0.1-0.3c0-0.1,0-0.3-0.1-0.4C324.5,62.5,324.4,62.4,324.3,62.3z"/>
<linearGradient id="SVGID_39_" gradientUnits="userSpaceOnUse" x1="314.422" y1="734.8408" x2="317.0781" y2="734.8408" gradientTransform="matrix(1 0 0 1 8 -688)">
	<stop  offset="0" style="stop-color:#03917D"/>
	<stop  offset="1" style="stop-color:#0FBCA7"/>
</linearGradient>
<path class="st38" d="M323.4,46.2c-0.1-0.3-0.4-0.4-0.7-0.5l-0.1,0.3c-0.1,0.1-0.1,0.2-0.2,0.3c0,0.1,0.1,0.1,0.2,0.3
	c0.1,0.1,0.2,0.2,0.3,0.2c0.1,0,0.1,0,0.1-0.1l0.1-0.1c0.1,0,0.2,0.2,0.3,0.6c0.1,0.3,0.1,0.6,0.2,0.9c0,0.1,0,0.1,0.1,0.1
	c0,0,0.1-0.1,0.1-0.2c0.1-0.3,0.2-0.5,0.2-0.7c0.1-0.9,0.3-1.3,0.5-1.3c0.1,0,0.1,0.1,0.2,0.1c0.1,0.1,0.1,0.1,0.1,0.1
	s0.1-0.1,0.1-0.1c0-0.1,0.1-0.1,0.1-0.3s-0.1-0.2-0.1-0.3c-0.1-0.1-0.2-0.2-0.3-0.2c-0.2,0-0.4,0.2-0.5,0.6
	c-0.1,0.4-0.2,0.9-0.3,1.3l-0.1,0.1v0C323.7,47,323.6,46.6,323.4,46.2z"/>
<linearGradient id="SVGID_40_" gradientUnits="userSpaceOnUse" x1="319.8551" y1="758.0422" x2="325.0935" y2="758.0422" gradientTransform="matrix(1 0 0 1 8 -688)">
	<stop  offset="0" style="stop-color:#03917D"/>
	<stop  offset="1" style="stop-color:#0FBCA7"/>
</linearGradient>
<path class="st39" d="M328.7,70.2C328.7,70.3,328.7,70.3,328.7,70.2L328.7,70.2l-0.6,0.1c-0.1,0-0.1,0-0.2,0c0,0-0.1,0.1-0.1,0.3
	c0,0.1,0,0.1,0.1,0.1h0.1h2.6c0.1,0,0.2,0,0.3,0.1h0.1l0,0c0.1-0.1,0.3-0.1,0.3-0.1h1.7c0.1,0,0.1,0,0.1-0.1l0,0c0,0,0,0,0-0.1
	c0-0.1,0-0.2-0.1-0.2l-0.1-0.1V70c0-0.3-0.2-0.5-0.5-0.6c-0.1-0.1-0.3-0.1-0.4-0.1c-0.1,0-0.2,0-0.3,0.1c-0.1,0.1-0.1,0.2-0.2,0.3
	v0.2h0.1c0.1-0.1,0.1-0.1,0.1-0.1l0.1-0.1h0.4c0.1,0,0.2,0.1,0.3,0.3c0.1,0.1,0.1,0.3,0.1,0.4h-1.3c-0.1,0-0.1,0-0.1-0.1l0,0V70
	c0-0.3-0.3-0.6-0.6-0.6h-0.9v0.1c0,0.1,0.1,0.1,0.1,0.2v0.5c0,0.1,0,0.1-0.1,0.1h-0.3c-0.1,0-0.1,0-0.1-0.1l0,0V70
	c0-0.3-0.1-0.5-0.3-0.6c-0.2-0.1-0.3-0.1-0.5-0.1h-0.2c0,0-0.1,0-0.1,0.1l0,0v0.5c0.1-0.1,0.3-0.1,0.5-0.1c0.1,0,0.3,0.2,0.2,0.3
	L328.7,70.2L328.7,70.2z M330,69.7L330,69.7l0.2-0.1c0.1,0,0.2,0,0.3,0.1c0.1,0,0.2,0.1,0.2,0.1v0.1v0.4h-0.5c0,0-0.1,0-0.1-0.1
	L330,69.7z"/>
<linearGradient id="SVGID_41_" gradientUnits="userSpaceOnUse" x1="325.3149" y1="757.9217" x2="325.7822" y2="757.9217" gradientTransform="matrix(1 0 0 1 8 -688)">
	<stop  offset="0" style="stop-color:#03917D"/>
	<stop  offset="1" style="stop-color:#0FBCA7"/>
</linearGradient>
<path class="st40" d="M333.5,70.7L333.5,70.7c0.2,0,0.3,0,0.3-0.1v-1.5c0-0.1,0-0.1-0.1-0.1h-0.4v0.1c0,0.1,0.1,0.1,0.1,0.2v1.2
	C333.4,70.7,333.4,70.8,333.5,70.7z"/>
<linearGradient id="SVGID_42_" gradientUnits="userSpaceOnUse" x1="314.0264" y1="757.9535" x2="319.1419" y2="757.9535" gradientTransform="matrix(1 0 0 1 8 -688)">
	<stop  offset="0" style="stop-color:#03917D"/>
	<stop  offset="1" style="stop-color:#0FBCA7"/>
</linearGradient>
<path class="st41" d="M326.7,70.4c0,0.1-0.1,0.3-0.2,0.3h0.5l0.1-0.1v-1.3c0-0.3-0.1-0.5-0.3-0.5c-0.3-0.1-0.5-0.1-0.8-0.1h-0.2
	c0,0.1,0,0.1,0.1,0.1v1.5h-0.7c0-0.1,0-0.1,0.1-0.1s0.1-0.1,0.1-0.1l0.1-0.1c0-0.1,0.1-0.1,0.1-0.1v-0.5c0-0.1-0.1-0.2-0.2-0.2h-1.1
	c-0.1,0-0.2,0.1-0.2,0.2l-0.1,0.1c0,0.1,0,0.3,0,0.4c0,0.1,0.1,0.2,0.2,0.3c0,0.1,0,0.1,0.1,0.1v0.1h-0.6v-0.9
	c0-0.1-0.1-0.1-0.1-0.1h-0.5c-0.3-0.1-0.6,0.1-0.6,0.5c0,0.1,0,0.1,0,0.1v0.8c0,0.1,0,0.3-0.1,0.5c0.3,0.1,0.5,0,0.5-0.3V70
	c0-0.1,0-0.1,0.1-0.2c0.1-0.1,0.1-0.1,0.2-0.1s0.1,0.1,0.1,0.1v0.9c0,0,0,0,0.1,0h3.2v-1.5c0-0.1,0-0.1,0.1-0.1s0.2,0,0.3,0.1
	c0.1,0.1,0.1,0.1,0.1,0.3C326.7,69.4,326.7,70.4,326.7,70.4z M324.7,70L324.7,70c-0.1,0.1-0.2,0.2-0.3,0.1c-0.1,0-0.1-0.1-0.1-0.1
	c-0.1-0.1-0.1-0.2-0.1-0.3c0-0.1,0.1-0.2,0.2-0.2h0.1c0.2,0,0.3,0.1,0.3,0.3C324.8,70,324.8,70,324.7,70L324.7,70z"/>
<linearGradient id="SVGID_43_" gradientUnits="userSpaceOnUse" x1="316.3628" y1="756.7981" x2="316.7317" y2="756.7981" gradientTransform="matrix(1 0 0 1 8 -688)">
	<stop  offset="0" style="stop-color:#03917D"/>
	<stop  offset="1" style="stop-color:#0FBCA7"/>
</linearGradient>
<path class="st42" d="M324.6,68.6c-0.1,0-0.2,0.1-0.2,0.1c0.1,0.1,0.1,0.2,0.2,0.2c0.1,0,0.1-0.1,0.2-0.2
	C324.7,68.7,324.6,68.7,324.6,68.6z"/>
<linearGradient id="SVGID_44_" gradientUnits="userSpaceOnUse" x1="325.3641" y1="756.7982" x2="325.7826" y2="756.7982" gradientTransform="matrix(1 0 0 1 8 -688)">
	<stop  offset="0" style="stop-color:#03917D"/>
	<stop  offset="1" style="stop-color:#0FBCA7"/>
</linearGradient>
<path class="st43" d="M333.6,68.8c0.1,0,0.1,0,0.1,0.1c0,0,0.1,0,0.1-0.1c0,0,0-0.1-0.1-0.1l-0.1-0.1c-0.1,0-0.1,0-0.1,0.1
	c-0.1,0.1-0.1,0.1-0.1,0.1V69h0.1c0.1,0,0.2,0,0.3,0c0,0,0.1,0,0.1-0.1c0,0,0-0.1-0.1-0.1l0,0L333.6,68.8L333.6,68.8L333.6,68.8
	L333.6,68.8L333.6,68.8z"/>
<linearGradient id="SVGID_45_" gradientUnits="userSpaceOnUse" x1="310.7432" y1="758.0759" x2="313.8543" y2="758.0759" gradientTransform="matrix(1 0 0 1 8 -688)">
	<stop  offset="0" style="stop-color:#03917D"/>
	<stop  offset="1" style="stop-color:#0FBCA7"/>
</linearGradient>
<path class="st44" d="M319.4,69.7c0.1,0,0.1-0.1,0.1-0.1c0-0.1,0-0.1,0-0.2v-0.1c0-0.1,0-0.1-0.1-0.1c-0.2,0-0.4,0.1-0.5,0.2
	c-0.1,0.1-0.2,0.3-0.2,0.5v0.7c0,0.1,0,0.1,0.1,0.1h2.6c0.1,0,0.3,0,0.4,0.1v-1.5h-0.5c0,0.1,0.1,0.1,0.1,0.2v0.7
	c0,0.1,0,0.1-0.1,0.1h-0.5v-0.9c0,0,0-0.1-0.1-0.1h-0.4c0.1,0.2,0.1,0.5,0.1,0.7v0.4h-1.2c0,0-0.1,0-0.1-0.1l0,0c0-0.1,0-0.2,0-0.3
	C319.1,69.8,319.2,69.7,319.4,69.7C319.3,69.7,319.3,69.7,319.4,69.7z"/>
<linearGradient id="SVGID_46_" gradientUnits="userSpaceOnUse" x1="327.8207" y1="757.0062" x2="330.7993" y2="757.0062" gradientTransform="matrix(1 0 0 1 8 -688)">
	<stop  offset="0" style="stop-color:#03917D"/>
	<stop  offset="1" style="stop-color:#0FBCA7"/>
</linearGradient>
<path class="st45" d="M338.8,69c-0.1-0.3-0.2-0.5-0.4-0.5c-0.1,0-0.3,0.1-0.3,0.2c0,0.1,0.1,0.3,0.1,0.4c0,0.1-0.1,0.2-0.1,0.2H338
	c-0.2-0.2-0.3-0.5-0.4-0.7c-0.2-0.7-0.5-1.1-0.7-1.1c-0.1,0-0.3,0.1-0.3,0.3v0.1V68c0.3,0.5,0.5,0.9,0.5,1.5c0,0.2-0.2,0.4-0.4,0.4
	l0,0c0-0.1-0.1-0.1-0.1-0.1c0-0.3-0.1-0.5-0.3-0.5c-0.1,0-0.3,0.1-0.3,0.3v0.1v0.2c0.1,0.5,0.3,0.7,0.7,0.7h0.1
	c0.4,0.1,0.7-0.1,0.9-0.5c0.1,0,0.2,0.1,0.3,0.1h0.4c0.2,0,0.4-0.2,0.5-0.6L338.8,69z"/>
<linearGradient id="SVGID_47_" gradientUnits="userSpaceOnUse" x1="324.4296" y1="736.5557" x2="326.7904" y2="736.5557" gradientTransform="matrix(1 0 0 1 8 -688)">
	<stop  offset="0" style="stop-color:#03917D"/>
	<stop  offset="1" style="stop-color:#0FBCA7"/>
</linearGradient>
<path class="st46" d="M333.4,48.3c-0.1,0-0.3,0-0.3,0.1c-0.1,0.1-0.2,0.1-0.3,0.2c-0.1,0.1-0.1,0.2-0.2,0.3
	c-0.1,0.1-0.1,0.3-0.1,0.4c0,0.1,0,0.2,0.1,0.3s0.1,0.2,0.2,0.3c0.1,0.1,0.2,0.1,0.3,0.2c0.1,0.1,0.3,0.1,0.3,0.1
	c0.1,0,0.2,0,0.3-0.1c0.1,0,0.3-0.1,0.3-0.2c0.1-0.1,0.1-0.2,0.2-0.3s0.1-0.2,0.1-0.3s0-0.3-0.1-0.4c0-0.1-0.1-0.2-0.1-0.3
	c0.2-0.2,0.4-0.4,0.5-0.6c0.1-0.2,0.2-0.4,0.2-0.7c0-0.3-0.1-0.4-0.3-0.4c-0.3,0-0.4,0.1-0.5,0.5v0.1h0.1l0.1-0.1
	c0.1,0,0.1-0.1,0.2-0.1c0.1,0,0.2,0.1,0.2,0.2c-0.1,0.3-0.3,0.7-0.5,0.9c-0.1-0.1-0.2-0.1-0.3-0.2C333.6,48.3,333.5,48.3,333.4,48.3
	z"/>
<linearGradient id="SVGID_48_" gradientUnits="userSpaceOnUse" x1="326.5446" y1="757.7733" x2="326.9381" y2="757.7733" gradientTransform="matrix(1 0 0 1 8 -688)">
	<stop  offset="0" style="stop-color:#03917D"/>
	<stop  offset="1" style="stop-color:#0FBCA7"/>
</linearGradient>
<path class="st47" d="M334.7,69.6c-0.1,0-0.1,0.1-0.2,0.2c0,0.1,0.1,0.1,0.2,0.2c0.1,0,0.1-0.1,0.2-0.2
	C334.9,69.7,334.9,69.6,334.7,69.6z"/>
<linearGradient id="SVGID_49_" gradientUnits="userSpaceOnUse" x1="326.5446" y1="758.5334" x2="326.9381" y2="758.5334" gradientTransform="matrix(1 0 0 1 8 -688)">
	<stop  offset="0" style="stop-color:#03917D"/>
	<stop  offset="1" style="stop-color:#0FBCA7"/>
</linearGradient>
<path class="st48" d="M334.5,70.5c0,0.1,0.1,0.2,0.1,0.2c0,0,0,0,0.1,0s0.2-0.1,0.2-0.1c0-0.1-0.1-0.2-0.2-0.2
	C334.7,70.3,334.5,70.4,334.5,70.5z"/>
<linearGradient id="SVGID_50_" gradientUnits="userSpaceOnUse" x1="329.5204" y1="758.3785" x2="330.7747" y2="758.3785" gradientTransform="matrix(1 0 0 1 8 -688)">
	<stop  offset="0" style="stop-color:#03917D"/>
	<stop  offset="1" style="stop-color:#0FBCA7"/>
</linearGradient>
<path class="st49" d="M338.2,70.2L338.2,70.2c-0.1-0.1-0.1-0.2-0.3-0.2c-0.2,0-0.3,0.1-0.3,0.3s0.1,0.3,0.3,0.3
	c0.2,0,0.3-0.1,0.3-0.2h0.1c0,0.1,0.1,0.2,0.3,0.2c0.2,0,0.3-0.1,0.3-0.3s-0.1-0.3-0.3-0.3l0,0C338.3,70,338.2,70.1,338.2,70.2z"/>
<linearGradient id="SVGID_51_" gradientUnits="userSpaceOnUse" x1="317.9613" y1="761.6791" x2="319.8428" y2="761.6791" gradientTransform="matrix(1 0 0 1 8 -688)">
	<stop  offset="0" style="stop-color:#03917D"/>
	<stop  offset="1" style="stop-color:#0FBCA7"/>
</linearGradient>
<path class="st50" d="M326.1,73.4c-0.1,0.3-0.1,0.7,0.2,0.9c0.3,0.3,0.6,0.4,1,0.3c0.2,0,0.4-0.1,0.5-0.3c-0.1-0.1-0.2,0-0.3,0.1
	c-0.2,0.1-0.5,0.1-0.7,0c-0.3-0.1-0.5-0.5-0.5-0.8v-0.1c0.1-0.3,0.5-0.6,0.8-0.5c0.3,0.1,0.5,0.4,0.5,0.7c0,0.1-0.1,0.2-0.1,0.3
	c-0.1,0.1-0.1,0.1-0.1-0.1c0-0.1,0-0.1,0-0.3c0-0.1,0-0.1,0.1-0.2c0-0.1,0-0.2,0.1-0.3h-0.1c-0.1,0-0.1,0-0.1,0.1h-0.1
	c-0.1,0-0.1-0.1-0.2-0.1c-0.2,0-0.4,0.1-0.5,0.3c-0.1,0.2-0.1,0.4,0,0.5c0.1,0.1,0.2,0.2,0.3,0.1c0.1,0,0.1,0,0.3-0.1h0.1
	c0.1,0,0.1,0.1,0.1,0.1c0.2,0,0.3-0.1,0.5-0.2c0.1-0.3,0.1-0.5,0-0.8c-0.2-0.3-0.6-0.5-1-0.4C326.4,72.8,326.1,73.1,326.1,73.4z
	 M327.1,73.7c0,0.1-0.1,0.3-0.3,0.3c-0.1,0-0.1-0.1-0.1-0.1c0,0,0,0,0-0.1c0-0.1,0-0.2,0.1-0.3c0.1-0.1,0.1-0.1,0.3-0.1
	C327,73.5,327.1,73.5,327.1,73.7L327.1,73.7z"/>
<linearGradient id="SVGID_52_" gradientUnits="userSpaceOnUse" x1="326.3232" y1="760.934" x2="326.7905" y2="760.934" gradientTransform="matrix(1 0 0 1 8 -688)">
	<stop  offset="0" style="stop-color:#03917D"/>
	<stop  offset="1" style="stop-color:#0FBCA7"/>
</linearGradient>
<path class="st51" d="M334.3,72.9c0,0.1,0.1,0.2,0.3,0.2c0.1,0,0.1-0.1,0.2-0.2c0-0.1-0.1-0.2-0.1-0.2c0,0,0,0-0.1,0
	C334.5,72.7,334.3,72.9,334.3,72.9z"/>
<linearGradient id="SVGID_53_" gradientUnits="userSpaceOnUse" x1="326.3724" y1="761.9428" x2="326.7904" y2="761.9428" gradientTransform="matrix(1 0 0 1 8 -688)">
	<stop  offset="0" style="stop-color:#03917D"/>
	<stop  offset="1" style="stop-color:#0FBCA7"/>
</linearGradient>
<path class="st52" d="M334.5,73.3c-0.1,0-0.1,0.1-0.1,0.1v1l0.1,0.1h0.3v-1.2h-0.1C334.6,73.4,334.5,73.4,334.5,73.3z"/>
<linearGradient id="SVGID_54_" gradientUnits="userSpaceOnUse" x1="334.8326" y1="756.361" x2="335.4474" y2="756.361" gradientTransform="matrix(1 0 0 1 8 -688)">
	<stop  offset="0" style="stop-color:#03917D"/>
	<stop  offset="1" style="stop-color:#0FBCA7"/>
</linearGradient>
<path class="st53" d="M342.8,68.4c0,0.2,0.1,0.3,0.3,0.3c0.2,0,0.3-0.1,0.3-0.3s-0.1-0.3-0.3-0.3C342.9,68,342.8,68.2,342.8,68.4z"
	/>
<linearGradient id="SVGID_55_" gradientUnits="userSpaceOnUse" x1="310.0413" y1="759.1406" x2="335.2604" y2="759.1406" gradientTransform="matrix(1 0 0 1 8 -688)">
	<stop  offset="0" style="stop-color:#03917D"/>
	<stop  offset="1" style="stop-color:#0FBCA7"/>
</linearGradient>
<path class="st54" d="M338.6,71.3h-0.1c0.1-0.1,0.1-0.3,0-0.3c-0.1-0.1-0.1-0.1-0.3,0c-0.1,0.1-0.1,0.2,0.1,0.3H338
	c0.1-0.1,0.1-0.2,0-0.3c-0.1-0.1-0.1-0.1-0.2,0l0,0c0,0-0.1,0.1-0.1,0.1s0,0.1,0.1,0.2h-1.4c0.1-0.1,0.1-0.3,0.1-0.3
	c-0.1-0.1-0.1-0.1-0.2,0l0,0c0,0-0.1,0.1-0.1,0.1v0.1c0,0,0.1,0.1,0.1,0.1h-14.5c0.1-0.1,0.1-0.3,0.1-0.3c-0.1-0.1-0.2-0.1-0.3,0
	c0,0.1-0.1,0.1-0.1,0.1c0,0.1,0,0.1,0.1,0.1l0.1,0.1h-0.2c0.1-0.1,0.1-0.3,0.1-0.3c-0.1-0.1-0.1-0.1-0.3,0c0,0-0.1,0.1-0.1,0.1
	l0.1,0.1v0.1H320c0.1-0.1,0.1-0.3,0-0.3c-0.1-0.1-0.1-0.1-0.2,0c-0.1,0.1-0.1,0.2,0.1,0.3h-1.7c-0.1,0-0.1,0-0.1,0.1l0,0
	c0,0.1,0,0.1,0.1,0.1h25c0.1,0,0.1,0,0.1-0.1c0-0.1-0.1-0.1-0.2-0.1L338.6,71.3z"/>
<linearGradient id="SVGID_56_" gradientUnits="userSpaceOnUse" x1="326.983" y1="761.714" x2="328.3806" y2="761.714" gradientTransform="matrix(1 0 0 1 8 -688)">
	<stop  offset="0" style="stop-color:#03917D"/>
	<stop  offset="1" style="stop-color:#0FBCA7"/>
</linearGradient>
<path class="st55" d="M335.5,72.8c-0.3,0.1-0.5,0.4-0.5,0.7c0,0.3,0.3,0.5,0.6,0.5h0.1c-0.1,0.1-0.1,0.3-0.3,0.5
	c0,0.1-0.1,0.1-0.1,0.1h0.5c0.1,0,0.1,0,0.1-0.1c0-0.1,0.1-0.1,0.1-0.2c0.1-0.2,0.3-0.4,0.3-0.6c0.2-0.3,0.1-0.6-0.1-0.8
	C336,72.8,335.7,72.7,335.5,72.8z M335.7,73.7c-0.1,0-0.2-0.1-0.3-0.3c0-0.1,0.1-0.2,0.3-0.3c0.1,0,0.3,0.1,0.3,0.3
	C335.9,73.6,335.8,73.7,335.7,73.7z"/>
<linearGradient id="SVGID_57_" gradientUnits="userSpaceOnUse" x1="325.7129" y1="761.6198" x2="326.1265" y2="761.6198" gradientTransform="matrix(1 0 0 1 8 -688)">
	<stop  offset="0" style="stop-color:#03917D"/>
	<stop  offset="1" style="stop-color:#0FBCA7"/>
</linearGradient>
<path class="st56" d="M333.8,72.7C333.7,72.7,333.7,72.7,333.8,72.7l-0.1,1.7c-0.1,0.1,0,0.2,0.1,0.1h0.1c0.1,0,0.1,0,0.1-0.1v-1.5
	c0-0.1,0-0.3-0.1-0.3C334,72.7,333.9,72.7,333.8,72.7z"/>
<linearGradient id="SVGID_58_" gradientUnits="userSpaceOnUse" x1="321.9357" y1="761.9224" x2="323.9376" y2="761.9224" gradientTransform="matrix(1 0 0 1 8 -688)">
	<stop  offset="0" style="stop-color:#03917D"/>
	<stop  offset="1" style="stop-color:#0FBCA7"/>
</linearGradient>
<path class="st57" d="M331.1,73.5c-0.2-0.2-0.5-0.3-0.7-0.1l0,0v-0.1H330v1.1c0,0.1,0,0.2,0.1,0.1h0.1c0.1,0,0.1,0,0.1-0.1V74
	c0-0.1,0-0.1,0.1-0.2c0-0.1,0.1-0.1,0.2-0.1s0.1,0.1,0.1,0.1c0,0.1,0.1,0.3,0.1,0.5v0.1c0,0.1,0,0.2,0.1,0.1h0.1
	c0.1,0,0.1,0,0.1-0.1v-0.6c0-0.1,0.1-0.2,0.2-0.2c0.1,0,0.1,0.1,0.1,0.2v0.5c0,0.1,0,0.2,0.2,0.1h0.2l0.1-0.1v-0.9
	c0-0.2-0.2-0.4-0.5-0.4l0,0C331.3,73.3,331.2,73.4,331.1,73.5z"/>
<linearGradient id="SVGID_59_" gradientUnits="userSpaceOnUse" x1="319.9043" y1="761.7607" x2="321.8472" y2="761.7607" gradientTransform="matrix(1 0 0 1 8 -688)">
	<stop  offset="0" style="stop-color:#03917D"/>
	<stop  offset="1" style="stop-color:#0FBCA7"/>
</linearGradient>
<path class="st58" d="M329.8,74.5l-0.1-0.3c-0.3-0.5-0.4-0.9-0.5-1.2c-0.1-0.1-0.1-0.1-0.2-0.1h-0.1c-0.1,0-0.1,0.1-0.1,0.2
	c-0.2,0.3-0.4,0.7-0.5,1.1c-0.1,0.2-0.1,0.3-0.2,0.4v0.1c0,0,0,0.1-0.1,0.1l0,0h0.4c0.1,0,0.1,0,0.1-0.1c0-0.1,0.1-0.2,0.1-0.3
	c0.1-0.1,0.2-0.1,0.3-0.1c0.1,0,0.3,0,0.3,0.1c0.1,0.1,0.1,0.2,0.1,0.3l0.1,0.1h0.4l-0.1-0.1L329.8,74.5z M328.7,73.9
	c0-0.1,0-0.1,0.1-0.1c0-0.1,0.1-0.2,0.1-0.3v-0.1l0.1,0.2c0,0.1,0.1,0.2,0.1,0.3H328.7z"/>
<linearGradient id="SVGID_60_" gradientUnits="userSpaceOnUse" x1="324.1419" y1="761.7411" x2="325.5116" y2="761.7411" gradientTransform="matrix(1 0 0 1 8 -688)">
	<stop  offset="0" style="stop-color:#03917D"/>
	<stop  offset="1" style="stop-color:#0FBCA7"/>
</linearGradient>
<path class="st59" d="M332.8,72.8c-0.2,0-0.3,0.1-0.5,0.2c-0.1,0.1-0.2,0.3-0.2,0.6c0,0.2,0.2,0.4,0.4,0.4c0.1,0.1,0.1,0.1,0.1,0.1
	h0.1c-0.1,0.1-0.1,0.3-0.3,0.5c-0.1,0.1-0.1,0.1-0.1,0.1h0.5c0,0,0.1,0,0.1-0.1l0,0c0.1-0.1,0.1-0.1,0.1-0.2
	c0.2-0.3,0.3-0.5,0.4-0.7c0.1-0.3,0.1-0.5-0.1-0.7C333.2,72.8,333,72.8,332.8,72.8z M332.8,73.7c-0.1,0-0.3-0.1-0.3-0.3l0,0
	c0-0.1,0.1-0.3,0.3-0.3c0.1,0,0.2,0.1,0.3,0.3C333.1,73.5,333,73.7,332.8,73.7z"/>
<linearGradient id="SVGID_61_" gradientUnits="userSpaceOnUse" x1="342.144" y1="730.361" x2="342.7835" y2="730.361" gradientTransform="matrix(1 0 0 1 0 -662)">
	<stop  offset="0" style="stop-color:#03917D"/>
	<stop  offset="1" style="stop-color:#0FBCA7"/>
</linearGradient>
<circle class="st60" cx="342.5" cy="68.4" r="0.3"/>
<linearGradient id="SVGID_62_" gradientUnits="userSpaceOnUse" x1="331.141" y1="757.3698" x2="335.054" y2="757.3698" gradientTransform="matrix(1 0 0 1 8 -688)">
	<stop  offset="0" style="stop-color:#03917D"/>
	<stop  offset="1" style="stop-color:#0FBCA7"/>
</linearGradient>
<path class="st61" d="M339.7,69.6c-0.1-0.1-0.2-0.1-0.3-0.1c-0.1,0-0.3,0.1-0.3,0.2v0.1V70c0.1,0.3,0.3,0.5,0.5,0.5h0.1
	c0.3,0,0.5-0.2,0.7-0.7h0.3l0.5-0.1c0,0.2,0.3,0.4,0.9,0.7h0.4c0.3,0,0.5-0.2,0.6-0.6v-0.5c0-0.3-0.1-0.4-0.3-0.4h-0.1
	c-0.1,0-0.3,0.1-0.3,0.3v0.1c0,0.1,0.1,0.2,0.1,0.3v0.2c0,0.1-0.1,0.1-0.1,0.1h-0.1c-0.2,0-0.4-0.1-0.5-0.3c0.2-0.1,0.3-0.3,0.3-0.4
	v-0.3c0-0.1-0.1-0.3-0.3-0.3h-0.1c-0.1,0-0.2,0-0.3,0.1c-0.1-0.1-0.1-0.1-0.3-0.1h-0.3c-0.2,0-0.3,0.1-0.3,0.3V69l0.1,0.1h-0.1
	c-0.4-0.5-0.7-0.7-0.9-0.7h-0.1c-0.1,0-0.3,0.1-0.3,0.2v0.1c0.1,0.3,0.3,0.6,0.5,0.9l0,0L339.7,69.6z"/>
<linearGradient id="SVGID_63_" gradientUnits="userSpaceOnUse" x1="320.1502" y1="736.0849" x2="321.4782" y2="736.0849" gradientTransform="matrix(1 0 0 1 8 -688)">
	<stop  offset="0" style="stop-color:#03917D"/>
	<stop  offset="1" style="stop-color:#0FBCA7"/>
</linearGradient>
<path class="st62" d="M329.1,46.8c-0.3,0-0.5,0.2-0.7,0.7v0.1h0.1l0.1-0.1c0.1-0.1,0.1-0.1,0.3-0.1c0.2,0,0.3,0.1,0.3,0.3
	s-0.3,0.6-0.8,1.2c-0.1,0.1-0.1,0.2-0.1,0.3c0,0,0.1-0.1,0.2-0.2c0.3-0.2,0.6-0.5,0.8-0.9c0.2-0.3,0.3-0.5,0.3-0.9
	C329.5,47,329.3,46.8,329.1,46.8z"/>
<linearGradient id="SVGID_64_" gradientUnits="userSpaceOnUse" x1="318.6746" y1="737.2281" x2="319.6834" y2="737.2281" gradientTransform="matrix(1 0 0 1 8 -688)">
	<stop  offset="0" style="stop-color:#03917D"/>
	<stop  offset="1" style="stop-color:#0FBCA7"/>
</linearGradient>
<path class="st63" d="M326.9,48.8C326.9,48.9,326.9,48.9,326.9,48.8c-0.1,0.1-0.1,0.1,0,0.1l0,0h0.1c0,0,0-0.1,0.1-0.1l0,0
	c0.1,0,0.1-0.1,0.2-0.1s0.2,0.1,0.2,0.1c0,0,0,0,0,0.1c0,0.2-0.2,0.5-0.6,1c-0.1,0.1-0.1,0.1-0.1,0.1s0.1,0,0.1-0.1
	c0.2-0.2,0.4-0.4,0.6-0.7c0.1-0.2,0.2-0.4,0.3-0.7c0-0.3-0.1-0.4-0.3-0.4C327.1,48.3,327,48.5,326.9,48.8z"/>
<linearGradient id="SVGID_65_" gradientUnits="userSpaceOnUse" x1="325.5609" y1="728.1829" x2="326.7905" y2="728.1829" gradientTransform="matrix(1 0 0 1 8 -688)">
	<stop  offset="0" style="stop-color:#03917D"/>
	<stop  offset="1" style="stop-color:#0FBCA7"/>
</linearGradient>
<path class="st64" d="M334.5,40.3c0.2-0.3,0.3-0.5,0.3-0.8c0-0.3-0.1-0.5-0.4-0.5c-0.3,0-0.5,0.2-0.5,0.5v0.2c0,0,0.1,0,0.1-0.1
	c0.1,0,0.2-0.1,0.3-0.1c0.1,0,0.3,0.1,0.3,0.3c0,0.2-0.3,0.6-0.7,1.2c-0.1,0.1-0.1,0.1-0.1,0.2l0.2-0.1
	C334.1,40.9,334.3,40.7,334.5,40.3z"/>
<linearGradient id="SVGID_66_" gradientUnits="userSpaceOnUse" x1="324.5525" y1="730.1332" x2="325.5609" y2="730.1332" gradientTransform="matrix(1 0 0 1 8 -688)">
	<stop  offset="0" style="stop-color:#03917D"/>
	<stop  offset="1" style="stop-color:#0FBCA7"/>
</linearGradient>
<path class="st65" d="M333.3,42.3c0.1-0.2,0.3-0.4,0.3-0.7c0-0.3-0.1-0.4-0.3-0.4c-0.3,0-0.4,0.1-0.5,0.5l-0.1,0.1v0.1
	c0,0,0.1,0,0.1,0.1v-0.1h0.1c0.1,0,0.1-0.1,0.2-0.1c0.1,0,0.2,0.1,0.2,0.1v0.1c0,0.1-0.2,0.5-0.6,0.9c-0.1,0.1-0.1,0.1-0.1,0.2
	l0.1-0.1C332.9,42.8,333.1,42.5,333.3,42.3z"/>
<linearGradient id="SVGID_67_" gradientUnits="userSpaceOnUse" x1="325.6099" y1="731.8817" x2="326.6428" y2="731.8817" gradientTransform="matrix(1 0 0 1 8 -688)">
	<stop  offset="0" style="stop-color:#03917D"/>
	<stop  offset="1" style="stop-color:#0FBCA7"/>
</linearGradient>
<path class="st66" d="M333.9,43.5v0.1C333.9,43.7,333.9,43.7,333.9,43.5L333.9,43.5l0.1,0.1c0.1,0,0.1-0.1,0.2-0.1
	c0.1,0,0.2,0.1,0.2,0.2c-0.1,0.3-0.3,0.7-0.6,0.9c-0.1,0.1-0.2,0.1-0.2,0.1c0.1,0,0.1-0.1,0.2-0.1c0.3-0.2,0.5-0.5,0.6-0.7
	c0.1-0.2,0.2-0.4,0.2-0.7s-0.1-0.4-0.3-0.4C334.1,43,333.9,43.2,333.9,43.5z"/>
<linearGradient id="SVGID_68_" gradientUnits="userSpaceOnUse" x1="322.9539" y1="731.6463" x2="324.1835" y2="731.6463" gradientTransform="matrix(1 0 0 1 8 -688)">
	<stop  offset="0" style="stop-color:#03917D"/>
	<stop  offset="1" style="stop-color:#0FBCA7"/>
</linearGradient>
<path class="st67" d="M331.9,43.7c0.1-0.2,0.3-0.5,0.3-0.7c0-0.3-0.1-0.5-0.3-0.5c-0.3,0-0.5,0.2-0.6,0.7c0,0.1,0,0.1-0.1,0.1
	l0.1,0.1l0.1-0.1c0.1-0.1,0.1-0.1,0.2-0.1c0.2,0,0.3,0.1,0.3,0.3c-0.1,0.5-0.4,0.9-0.7,1.2c-0.1,0.1-0.1,0.1-0.1,0.2
	c0,0,0.1-0.1,0.2-0.1C331.4,44.4,331.7,44.1,331.9,43.7z"/>
<linearGradient id="SVGID_69_" gradientUnits="userSpaceOnUse" x1="312.1327" y1="736.9255" x2="313.3624" y2="736.9255" gradientTransform="matrix(1 0 0 1 8 -688)">
	<stop  offset="0" style="stop-color:#03917D"/>
	<stop  offset="1" style="stop-color:#0FBCA7"/>
</linearGradient>
<path class="st68" d="M321.1,49.1c0.1-0.3,0.3-0.5,0.3-0.8c0-0.3-0.1-0.5-0.3-0.5c-0.3,0-0.5,0.2-0.5,0.6v0.2c0.1,0,0.1,0,0.1-0.1
	c0.1-0.1,0.1-0.1,0.3-0.1c0.1,0,0.3,0.1,0.3,0.3c0,0.2-0.3,0.5-0.7,1.1l-0.1,0.2v0.1c0,0,0.1-0.1,0.3-0.2
	C320.7,49.7,320.9,49.4,321.1,49.1z"/>
<linearGradient id="SVGID_70_" gradientUnits="userSpaceOnUse" x1="311.3703" y1="739.0439" x2="313.6574" y2="739.0439" gradientTransform="matrix(1 0 0 1 8 -688)">
	<stop  offset="0" style="stop-color:#03917D"/>
	<stop  offset="1" style="stop-color:#0FBCA7"/>
</linearGradient>
<path class="st69" d="M321.3,49.8c-0.2,0-0.3,0.2-0.5,0.5c-0.1,0.3-0.2,0.7-0.3,1.1l-0.1,0.1v-0.1c-0.1-0.3-0.2-0.7-0.3-1
	c-0.1-0.3-0.3-0.4-0.5-0.4c0,0-0.1,0.1-0.1,0.3c-0.1,0.1-0.1,0.2-0.1,0.3c0,0.1,0.1,0.1,0.1,0.2c0.1,0.1,0.1,0.1,0.3,0.1
	c0,0,0.1,0,0.1-0.1h0.1c0.1,0,0.2,0.2,0.3,0.5c0.1,0.2,0.1,0.5,0.2,0.7c0,0.1,0,0.1,0.1,0.1s0.1-0.1,0.1-0.1c0-0.1,0.1-0.3,0.2-0.7
	c0.1-0.7,0.2-1.1,0.4-1.1c0.1,0,0.1,0.1,0.2,0.2c0.1,0.1,0.1,0.1,0.1,0.1s0.1-0.1,0.1-0.1s0.1-0.1,0.1-0.2c0-0.1-0.1-0.2-0.1-0.3
	C321.4,49.9,321.3,49.8,321.3,49.8z"/>
<linearGradient id="SVGID_71_" gradientUnits="userSpaceOnUse" x1="310.3372" y1="741.1623" x2="311.5669" y2="741.1623" gradientTransform="matrix(1 0 0 1 8 -688)">
	<stop  offset="0" style="stop-color:#03917D"/>
	<stop  offset="1" style="stop-color:#0FBCA7"/>
</linearGradient>
<path class="st70" d="M319.2,52c-0.3,0-0.5,0.2-0.5,0.6v0.1h-0.1l0.1,0.1l0.1-0.1c0.1-0.1,0.1-0.1,0.3-0.1c0.1,0,0.2,0.1,0.2,0.3
	c-0.1,0.4-0.4,0.8-0.7,1.1c-0.1,0.1-0.1,0.1-0.1,0.2c0.1,0,0.1-0.1,0.2-0.1c0.3-0.2,0.6-0.5,0.8-0.9c0.1-0.2,0.2-0.5,0.3-0.7
	C319.6,52.2,319.5,52,319.2,52z"/>
<linearGradient id="SVGID_72_" gradientUnits="userSpaceOnUse" x1="317.4941" y1="736.253" x2="318.8222" y2="736.253" gradientTransform="matrix(1 0 0 1 8 -688)">
	<stop  offset="0" style="stop-color:#03917D"/>
	<stop  offset="1" style="stop-color:#0FBCA7"/>
</linearGradient>
<path class="st71" d="M326.4,47c-0.3,0-0.5,0.2-0.6,0.7v0.1h0.1l0.1-0.1c0.1-0.1,0.1-0.1,0.3-0.1c0.1,0,0.3,0.1,0.3,0.3
	c0,0.2-0.3,0.6-0.8,1.2c-0.1,0.1-0.1,0.1-0.1,0.3l0.2-0.1c0.3-0.2,0.6-0.5,0.8-0.9c0.2-0.3,0.3-0.6,0.3-0.9
	C326.8,47.2,326.7,47,326.4,47z"/>
<linearGradient id="SVGID_73_" gradientUnits="userSpaceOnUse" x1="312.8459" y1="742.541" x2="314.2231" y2="742.541" gradientTransform="matrix(1 0 0 1 8 -688)">
	<stop  offset="0" style="stop-color:#03917D"/>
	<stop  offset="1" style="stop-color:#0FBCA7"/>
</linearGradient>
<path class="st72" d="M321.9,54.7c0.2-0.3,0.3-0.5,0.3-0.9c0-0.4-0.1-0.5-0.4-0.5c-0.3,0-0.5,0.2-0.6,0.7l-0.1,0.1h0.1l0.1-0.1
	c0.1-0.1,0.1-0.1,0.3-0.1c0.1,0,0.2,0.1,0.3,0.2v0.1c-0.1,0.5-0.4,0.9-0.7,1.3c-0.1,0.1-0.2,0.1-0.2,0.2v0.1c0.1,0,0.2-0.1,0.3-0.1
	C321.4,55.4,321.7,55,321.9,54.7z"/>
<linearGradient id="SVGID_74_" gradientUnits="userSpaceOnUse" x1="312.93" y1="745.9035" x2="315.2075" y2="745.9035" gradientTransform="matrix(1 0 0 1 8 -688)">
	<stop  offset="0" style="stop-color:#03917D"/>
	<stop  offset="1" style="stop-color:#0FBCA7"/>
</linearGradient>
<path class="st73" d="M322.5,56.9c0,0.1,0,0.1,0.1,0.2c0,0.1,0.1,0.3,0.1,0.5c0,0.2,0,0.3,0,0.5s0,0.4-0.1,0.5
	c-0.1-0.4-0.2-0.7-0.3-1.1c-0.1-0.2-0.3-0.5-0.4-0.6c-0.1-0.1-0.2-0.2-0.3-0.3c-0.1,0-0.2,0-0.3,0c-0.1,0.1-0.2,0.2-0.2,0.3
	s0,0.3,0.1,0.5c0,0.1,0,0.1,0.1,0.2c0,0.1,0.1,0.1,0.1,0.2c0.1,0.1,0.1,0.1,0.2,0.1s0.2,0,0.3-0.1c0.1,0,0.1-0.1,0.1-0.2
	c0-0.1-0.1-0.3-0.1-0.4c0.1,0.1,0.2,0.2,0.3,0.3c0.1,0.1,0.1,0.3,0.2,0.4c0.1,0.1,0.1,0.3,0.1,0.5c0,0.1,0.1,0.3,0.1,0.5
	c0,0.1,0,0.3-0.1,0.5v0.4c0.2-0.3,0.3-0.5,0.5-0.7c0.1-0.3,0.1-0.5,0.2-0.7c0-0.3,0-0.5-0.1-0.7c-0.1-0.3-0.1-0.6-0.2-0.9
	c0.1,0.1,0.1,0.1,0.3,0.1c0.1,0,0.1,0,0.2-0.1c0.1-0.1,0.1-0.2,0.1-0.3c0-0.1,0-0.2-0.1-0.3c-0.1-0.1-0.1-0.1-0.1-0.2
	c-0.1-0.1-0.1-0.1-0.3-0.2c-0.1,0-0.1,0-0.2,0.1s-0.1,0.1-0.2,0.2c0,0.1-0.1,0.1-0.1,0.3c-0.1,0.1,0,0.3,0.1,0.3
	C322.4,56.7,322.4,56.9,322.5,56.9z"/>
<linearGradient id="SVGID_75_" gradientUnits="userSpaceOnUse" x1="311.4685" y1="744.5585" x2="312.477" y2="744.5585" gradientTransform="matrix(1 0 0 1 8 -688)">
	<stop  offset="0" style="stop-color:#03917D"/>
	<stop  offset="1" style="stop-color:#0FBCA7"/>
</linearGradient>
<path class="st74" d="M320.5,56c0-0.3-0.1-0.4-0.3-0.4c-0.2,0-0.4,0.2-0.5,0.5v0.1l-0.1,0.1h0.1v0.1l0.1-0.1h0.1
	c0.1-0.1,0.1-0.1,0.2-0.1c0.1,0,0.2,0.1,0.2,0.1c0,0,0,0,0,0.1c0,0.2-0.2,0.5-0.7,1c-0.1,0.1-0.1,0.1-0.1,0.1l0.1-0.1
	c0.3-0.2,0.5-0.5,0.6-0.7C320.4,56.5,320.5,56.3,320.5,56z"/>
<linearGradient id="SVGID_76_" gradientUnits="userSpaceOnUse" x1="309.5859" y1="738.8097" x2="335.713" y2="738.8097" gradientTransform="matrix(1 0 0 1 8 -688)">
	<stop  offset="0" style="stop-color:#03917D"/>
	<stop  offset="1" style="stop-color:#0FBCA7"/>
</linearGradient>
<path class="st75" d="M330.7,66.8c3.6,0.1,7.1-1.3,9.6-3.8c1.9-1.8,3.1-4.2,3.4-6.9c0.1-2.2-0.3-4.3-1.3-6.3c-1.1-2.3-2.5-4.4-4-6.5
	c-0.7-0.9-1.7-2.3-3.2-4.2c-1.5-2-2.6-3.4-3.2-4.4l0.3,0.6c0.7,1.1,1.2,1.8,1.6,2.4c-0.1,0-0.1-0.1-0.1-0.1c-0.1,0-0.1,0-0.3,0.1
	c-0.2,0.1-0.4,0.1-0.6,0.2c-0.1,0-0.3,0.1-0.4,0.1c-0.1,0-0.1,0-0.2,0.1H332c-0.2,0.1-0.3,0.1-0.4,0.1h-0.1c-0.1,0-0.2,0.1-0.3,0.1
	c-0.2,0.1-0.4,0.2-0.5,0.3c-0.2,0.2-0.3,0.4-0.3,0.7c-0.1,0.3-0.1,0.5-0.1,0.7c0,0.3,0.1,0.6,0.2,0.9v0.1l0.1,0.1
	c0,0.1-0.1,0.1-0.3,0.2c-0.1,0.1-0.3,0.3-0.5,0.5c-0.3,0.2-0.5,0.5-0.7,0.7c-0.2,0.3-0.3,0.7-0.4,1h-0.1v0.5c0,0.2,0,0.4,0.1,0.6
	c-0.1,0.2-0.2,0.3-0.3,0.5c-0.1,0.1-0.2,0.3-0.3,0.4c-0.1,0-0.2,0.1-0.3,0.1c-0.1,0-0.2-0.1-0.3-0.2c-0.1-0.1-0.1-0.2-0.2-0.3
	c-0.1-0.1-0.1-0.3-0.1-0.5s-0.1-0.3-0.1-0.5c-0.1-0.1-0.1-0.2-0.2-0.3c-0.1-0.1-0.2-0.2-0.3-0.2c-0.2,0-0.3,0.1-0.4,0.3
	c-0.1,0.3-0.3,0.5-0.3,0.7c-0.1,0.3-0.1,0.6-0.2,1c-0.1,0.4-0.1,0.8-0.2,1.2c-0.1,0.4-0.2,0.7-0.3,1.1s-0.3,0.6-0.5,0.9
	c-0.2,0.3-0.5,0.4-0.7,0.5c-0.3,0.1-0.6,0-0.8-0.1c-0.3-0.3-0.4-0.6-0.5-1c-0.1-0.4-0.1-0.9-0.1-1.3c0-0.5,0.1-1,0.1-1.4
	c0.1-0.5,0.3-0.9,0.3-1.3c0.4-0.5,0.9-1.3,1.7-2.4c1.3-1.7,2.2-3.1,2.8-4c0.3-0.5,0.9-1.3,1.5-2.2c0.1-0.2,0.2-0.3,0.3-0.3l0.3-0.6
	c-0.7,0.9-1.7,2.4-3.4,4.5c-1.5,1.9-2.5,3.2-3.1,4.1c-1.5,2.1-2.9,4.2-4.1,6.5c-1,1.9-1.4,4-1.2,6.2c0.3,2.6,1.5,5,3.4,6.9
	C323.6,65.5,327.1,66.8,330.7,66.8z M331,39.5c0.2-0.1,0.4-0.1,0.6-0.2c0.2,0,0.4-0.1,0.7-0.1c0.2,0,0.4-0.1,0.6-0.2l0.1-0.1V39
	L333,39c-0.1,0.2-0.3,0.4-0.5,0.5s-0.4,0.3-0.6,0.4c-0.2,0.1-0.4,0.1-0.6,0.1c-0.2,0-0.3-0.2-0.4-0.3
	C330.9,39.6,330.9,39.6,331,39.5L331,39.5z M319.2,56.7c0.1-0.7,0.2-1.3,0.4-2c0.2-0.5,0.5-0.9,0.8-1.3c0.3-0.3,0.7-0.6,1.1-0.7
	c0.5-0.2,0.9-0.4,1.3-0.5c0.4-0.1,0.9-0.2,1.5-0.3c0.5-0.1,1.1-0.2,1.5-0.3c0.5-0.1,1-0.3,1.5-0.5c0.5-0.2,1-0.5,1.4-0.9
	c0.1-0.1,0.3-0.3,0.5-0.5c0.1-0.2,0.3-0.4,0.5-0.7c0-0.1,0.1-0.1,0.1-0.1c0,0.1,0.1,0.4,0.1,0.5c0,0.3,0,0.4,0.1,0.4
	c0-0.1,0-0.1,0.1-0.2c0.1-0.2,0.1-0.5,0.1-0.7c0-0.7-0.1-1.5-0.3-2.2c0.1-0.1,0.3-0.2,0.5-0.3c0.1-0.1,0.3-0.1,0.5-0.1
	c0,0,0.1,0,0.1-0.1s0-0.1,0.1-0.1c0-0.1,0.1-0.1,0.1-0.2c0-0.2-0.1-0.3-0.3-0.4c-0.2-0.2-0.3-0.3-0.4-0.3c-0.2,0-0.3,0.3-0.4,0.7V46
	c0,0,0.1,0,0.1-0.1c0-0.1,0.1-0.1,0.1-0.1c0.1,0,0.1,0.1,0.2,0.1c-0.1,0-0.3,0.1-0.4,0.1c-0.1,0.2-0.3,0.4-0.2,0.7
	c0.1,0.3,0.1,0.7,0.2,1c0.1,0.3,0.1,0.7,0.1,1l-0.1,0.1c-1.1,0.7-2.2,1.3-3.5,1.7c-0.4,0.1-0.8,0.2-1.2,0.3
	c-0.5,0.1-1.1,0.2-1.5,0.3c-0.5,0.1-1.1,0.3-1.7,0.5c-0.5,0.2-1.1,0.5-1.5,1c-0.5,0.4-0.9,0.9-1.1,1.5c-0.3,0.7-0.6,1.4-0.6,2.2
	c-0.1,0.7-0.1,1.3,0.1,2c0.1,0.4,0.2,0.8,0.3,1.2c-0.5-1.1-0.9-2.2-1-3.4l0.1-0.1c0.2-0.1,0.3-0.3,0.4-0.5c0.1-0.1,0.2-0.3,0.2-0.5
	c0-0.1-0.1-0.3-0.2-0.3h-0.1c-0.1,0-0.3,0.1-0.3,0.3c0,0.1,0,0.1-0.1,0.1h0.1c0.1-0.1,0.1-0.1,0.1-0.1c0.1,0,0.2,0.1,0.2,0.1
	s-0.1,0.3-0.5,0.7v0.1h-0.1c-0.1-1.5,0-3.2,0.5-4.6c0.7-2,1.7-3.9,3-5.6l0.1-0.2l0.1-0.1v-0.1l0.1-0.1l0.1-0.2l0.1-0.1
	c-0.1,0.2-0.1,0.5-0.1,0.7c-0.1,0.3-0.1,0.7-0.2,1.1c0,0.3-0.1,0.7-0.1,1.2c0,0.4,0,0.8,0.1,1.1s0.2,0.6,0.3,0.9
	c0.3,0.5,0.8,0.9,1.4,0.7c0.3,0,0.7-0.2,0.9-0.5c0.3-0.3,0.5-0.7,0.5-1.1c0.2-0.4,0.3-0.9,0.4-1.3c0.1-0.5,0.2-1,0.3-1.3
	c0.1-0.4,0.1-0.7,0.2-1c0.1-0.3,0.2-0.4,0.3-0.4c0.1,0,0.1,0.1,0.1,0.1c0.1,0.1,0.1,0.3,0.1,0.3s0,0.1,0.1,0.1
	c0.1,0.1,0.1,0.2,0.1,0.3c0,0.1,0.1,0.3,0.1,0.5c0.1,0.1,0.1,0.3,0.3,0.4c0.1,0.1,0.3,0.1,0.3,0.2h0.1c0.1,0,0.3-0.1,0.4-0.2
	c0.1-0.1,0.3-0.3,0.5-0.5c0.2-0.2,0.3-0.4,0.5-0.6c0.2-0.3,0.3-0.5,0.5-0.6c0.2-0.2,0.4-0.4,0.6-0.5c0.2-0.1,0.5-0.3,0.7-0.3
	c0.1-0.1,0.1-0.3,0.1-0.3c0.1-0.1,0.1-0.3,0.1-0.4v-0.3c0-0.1,0.1-0.1,0.1-0.1v-0.2c-0.1-0.1-0.2-0.2-0.3-0.1l-0.5,0.2
	c-0.1,0-0.2,0.1-0.3,0.1c-0.1,0-0.2,0.1-0.3,0.1c-0.1,0-0.2,0.1-0.3,0.1c0-0.3,0.1-0.5,0.2-0.7c0.3-0.2,0.6-0.4,0.9-0.6
	c0.3-0.1,0.7-0.3,1.1-0.6c0.4-0.2,0.8-0.4,1.1-0.7c0.3-0.3,0.6-0.6,0.8-0.9c0.3-0.5,0.3-0.9,0.3-1.5c0-0.1,0-0.3-0.1-0.3
	c0-0.1,0-0.1,0-0.3l0.1,0.1c0.6,0.9,1.5,2.2,2.8,3.8c0.2,0.3,0.3,0.5,0.4,0.6h-0.1c-0.3,0-0.4,0.2-0.5,0.5V43v-0.1h0.1
	c0.1-0.1,0.1-0.1,0.2-0.1c0.1,0,0.2,0.1,0.2,0.3c-0.1,0.3-0.3,0.6-0.5,0.8c0-0.1,0-0.2-0.1-0.3c0-0.4-0.1-0.8-0.3-1.2
	c-0.1-0.3-0.3-0.5-0.5-0.7c-0.1-0.2-0.4-0.3-0.7-0.1c0,0-0.1,0.1-0.1,0.3c0,0.1,0,0.3,0.1,0.5v0.3c0,0.1,0.1,0.3,0.1,0.3l0.1,0.1
	v0.2c0,0,0,0.1,0.1,0.1l0,0c-0.1,0.1-0.3,0.3-0.3,0.4V44l0.1-0.1h0.1c0.1,0,0.1-0.1,0.2-0.1c0.1,0,0.2,0.1,0.2,0.1c0,0,0,0,0,0.1
	c-0.1,0.4-0.3,0.7-0.6,1c-0.1,0.1-0.1,0.1-0.1,0.1c0.1,0,0.1-0.1,0.2-0.1c0.3-0.2,0.5-0.4,0.6-0.7c0.1-0.2,0.2-0.4,0.2-0.7
	s-0.1-0.4-0.3-0.4h0.2c0.1-0.1,0.1-0.1,0.1-0.3c0.2,0,0.4,0.1,0.6,0.3c0.1,0.1,0.3,0.3,0.3,0.4c0,0.1,0,0.3-0.1,0.5
	c-0.1,0.2-0.1,0.3-0.3,0.5c-0.1,0.1-0.2,0.3-0.3,0.4c-0.1,0.1-0.2,0.2-0.3,0.2v0.1c-0.1,0-0.2,0-0.3,0c-0.1,0-0.3,0-0.4-0.1
	c-0.1,0-0.3-0.1-0.3-0.1c0-0.1,0-0.1-0.1-0.1c-0.1,0-0.1-0.1-0.2-0.1s-0.1,0-0.1,0v0.1l0.3,1.1c0,0.1,0.1,0.1,0.1,0.1
	c0.1,0,0.3,0.1,0.3,0.1c0.1,0.1,0.3,0.2,0.4,0.3c0.1,0.2,0.3,0.5,0.3,0.7c0.1,0.3,0.1,0.6,0.1,0.9s-0.1,0.7-0.3,1
	c-0.1,0.3-0.3,0.5-0.5,0.8c-0.2,0.2-0.5,0.4-0.7,0.5c-0.3,0.1-0.6,0.1-0.9-0.1c-0.3-0.1-0.5-0.3-0.7-0.5c-0.2-0.2-0.4-0.5-0.5-0.7
	c-0.2-0.3-0.3-0.6-0.3-0.9c-0.1-0.3-0.1-0.5-0.1-0.7c0.1-0.3,0.1-0.6,0.2-0.9c0.1-0.3,0.2-0.6,0.3-0.9c0.1-0.3,0.3-0.5,0.5-0.8
	c0.2-0.3,0.4-0.5,0.6-0.8c0.1-0.1,0.2-0.3,0.3-0.3c0.1-0.1,0.2-0.3,0.3-0.4c0.2-0.3,0.4-0.5,0.6-0.8c0.2-0.3,0.4-0.6,0.5-0.9
	c0.1-0.3,0.3-0.5,0.3-0.9s0.1-0.7,0.1-1c0-0.2,0-0.4-0.1-0.6c0,0-0.1,0-0.1,0.1c-0.1,0.1-0.1,0.1-0.1,0.3c-0.1,0.1-0.1,0.2-0.1,0.3
	l-0.1,0.1c-0.1,0.4-0.2,0.7-0.3,1.1c-0.1,0.3-0.3,0.6-0.5,0.9c-0.2,0.3-0.4,0.5-0.6,0.8c-0.1,0.2-0.3,0.4-0.5,0.7
	c-0.3,0.3-0.6,0.7-0.9,1.2c-0.3,0.4-0.5,0.8-0.7,1.3c-0.1,0.5-0.3,0.9-0.3,1.4c-0.1,0.5-0.1,1,0.1,1.5c0.1,0.5,0.3,0.9,0.5,1.3
	c0.2,0.4,0.4,0.7,0.7,1.1c0.3,0.3,0.5,0.5,0.9,0.6c0.3,0.1,0.7,0.1,1,0.1s0.6-0.2,0.8-0.5c0.2-0.2,0.4-0.5,0.5-0.8
	c0.1-0.3,0.3-0.6,0.3-0.9c0-0.3,0.1-0.6,0.1-0.9c0-0.8-0.1-1.7-0.3-2.5v-0.1c0.3-0.1,0.6-0.4,0.7-0.7c0.2-0.3,0.3-0.7,0.3-1.1
	c0-0.3,0-0.6,0-0.9c0.2-0.2,0.4-0.4,0.5-0.7c0.1-0.2,0.3-0.4,0.3-0.7v0.1c1,1.3,1.7,2.4,2.2,3.1c1.3,1.7,2.3,3.6,3.1,5.6
	c0.7,2,0.8,4.1,0.3,6.1c-0.5,2.1-1.7,3.9-3.4,5.3c0.1-0.1,0.1-0.1,0.2-0.3c0.1-0.2,0.3-0.5,0.3-0.7s-0.1-0.3-0.3-0.3
	s-0.3,0.1-0.4,0.5l-0.1,0.1v0.1h0.1l0.1-0.1c0.1,0,0.1-0.1,0.2-0.1s0.2,0.1,0.2,0.1c0,0,0,0,0,0.1c-0.1,0.3-0.3,0.7-0.5,1
	c-0.1,0.1-0.1,0.1-0.2,0.1c-0.5,0.4-1.1,0.7-1.6,1.1c-0.7,0.4-1.4,0.7-2.2,0.9c0.3-0.1,0.5-0.3,0.7-0.5c0.3-0.2,0.5-0.5,0.7-0.7
	c0-0.1,0.1-0.1,0.1-0.2v-0.1c0.1-0.2,0.1-0.3,0.2-0.5c0.1-0.7,0.2-0.9,0.3-0.9c0.1,0,0.1,0.1,0.1,0.1l0.1,0.1c0,0,0.1-0.1,0.1-0.1
	v-0.1l0.1-0.1c0-0.1-0.1-0.2-0.1-0.3c-0.1-0.1-0.1-0.1-0.2-0.1c-0.1,0-0.3,0.1-0.4,0.5c-0.1,0.4-0.2,0.7-0.2,0.9v0.1h-0.3v-0.1
	c0-0.3-0.1-0.6-0.3-0.9c-0.1-0.3-0.3-0.3-0.5-0.3l-0.1,0.2c0,0.1-0.1,0.1-0.1,0.1c0,0.1-0.1,0.1-0.1,0.1c0,0,0.1,0.1,0.1,0.1
	c0.1,0.1,0.1,0.1,0.2,0.1s0.1,0,0.1-0.1h0.1c0,0,0.1,0.1,0.3,0.5c0.1,0.2,0.1,0.4,0.2,0.7c0,0,0,0.1,0.1,0.1l0,0
	c-0.1,0.1-0.1,0.1-0.1,0.1c-0.1,0.1-0.3,0.3-0.5,0.4c-0.8,0.5-1.3,0.9-1.7,1.1c-0.1,0.1-0.1,0.1-0.1,0.1c-0.9,0.2-1.8,0.3-2.7,0.4
	v0.1h-0.1c-0.2,0-0.3,0-0.5,0c1.5-2,2.8-3.6,4-4.9c0.1-0.2,0.1-0.3,0-0.5c0-0.1,0-0.1-0.1-0.1l-0.1,0.1c-0.5,0.5-1.1,1.3-2,2.4
	c-0.9,1.1-1.5,1.8-2,2.4c0,0.3,0,0.5,0.1,0.7c-0.1,0-0.2,0-0.3,0c-0.3,0-0.5-0.1-0.7-0.1v0.1c-1.7-0.1-3.4-0.5-5-1.1
	c0.2-0.1,0.4-0.3,0.5-0.5c0.1-0.2,0.2-0.4,0.2-0.7s-0.1-0.4-0.3-0.4c-0.2,0-0.3,0.1-0.5,0.5v0.1h0.1V64c0.1,0,0.1-0.1,0.2-0.1
	s0.2,0.1,0.2,0.1c0,0,0,0,0,0.1c-0.1,0.3-0.3,0.6-0.5,0.9c-0.4-0.1-0.7-0.3-1-0.5c-0.7-0.4-1.3-0.9-2-1.3c0.2-0.1,0.3-0.3,0.4-0.5
	c0.1-0.2,0.3-0.4,0.3-0.7c0-0.1,0-0.3-0.1-0.3c0.3-0.1,0.7-0.1,0.9-0.3c0.4-0.2,0.7-0.5,1.1-0.7c0.3-0.3,0.7-0.7,0.9-1.1
	s0.5-0.8,0.8-1.2c0.3-0.4,0.5-0.8,0.7-1.2c0.2-0.4,0.4-0.7,0.6-1.1c0.1-0.3,0.3-0.5,0.5-0.7c0.1-0.2,0.3-0.3,0.5-0.3
	c0.1,0,0.1,0.1,0.1,0.1c0.1,0.1,0.1,0.2,0.1,0.3c0,0.1,0.1,0.3,0.1,0.3v0.1c0.1,0.1,0.1,0.3,0.2,0.4c0.1,0.1,0.2,0.2,0.3,0.3
	c0.2,0.1,0.4,0.1,0.6,0.1c0.3-0.1,0.7-0.2,1-0.5c0.3-0.3,0.5-0.7,0.6-1.1c0.1-0.4,0.2-0.9,0.3-1.3c0-0.4,0-0.8-0.1-1.3
	c-0.1-0.3-0.1-0.7-0.3-0.9c-0.2-0.2-0.5-0.3-0.7-0.3c0,0-0.1,0.1-0.1,0.3s-0.1,0.4-0.1,0.6s0,0.4-0.1,0.5v0.3h-0.1
	c-0.3,0-0.4,0.1-0.5,0.5l-0.1,0.1v0.1h0.1l0.1-0.1c0.1,0,0.1-0.1,0.2-0.1c0.1,0,0.2,0.1,0.2,0.1v0.1c0,0.1-0.2,0.5-0.6,0.9
	c-0.1,0.1-0.1,0.1-0.1,0.1s0.1,0,0.1-0.1c0.2-0.2,0.4-0.5,0.6-0.7c0.1-0.2,0.2-0.4,0.3-0.7c0-0.1,0-0.2-0.1-0.3
	c0-0.1,0.1-0.1,0.1-0.2c0.2,0.1,0.5,0.2,0.6,0.3c0.1,0.1,0.2,0.3,0.1,0.5c0,0.2-0.1,0.3-0.1,0.5c-0.1,0.1-0.2,0.3-0.3,0.5
	c-0.1,0.1-0.3,0.3-0.5,0.3c-0.1,0.1-0.3,0.1-0.4,0.1v-0.1c-0.2,0-0.3,0-0.5-0.1c-0.1-0.1-0.2-0.2-0.3-0.3l-0.1-0.4
	c0-0.1,0-0.3-0.1-0.3c0-0.1-0.1-0.2-0.1-0.3c0-0.1-0.1-0.1-0.2-0.1c-0.3,0-0.5,0.1-0.7,0.3c-0.3,0.2-0.5,0.5-0.6,0.7
	c-0.2,0.3-0.4,0.6-0.7,1.1c-0.3,0.5-0.5,0.9-0.7,1.2c-0.3,0.5-0.5,0.9-0.8,1.3c-0.3,0.4-0.6,0.7-0.9,1.1c-0.3,0.3-0.7,0.5-1.1,0.7
	c-0.4,0.1-0.9,0.3-1.3,0.3s-0.9-0.1-1.3-0.3c-0.1,0-0.1,0-0.1-0.1h-0.1c0.2-0.2,0.4-0.4,0.6-0.7c0.1-0.2,0.2-0.4,0.2-0.7
	s-0.1-0.4-0.3-0.4s-0.4,0.1-0.5,0.5v0.4h0.1c0,0,0.1,0,0.1-0.1l0,0c0.1,0,0.1-0.1,0.2-0.1s0.2,0.1,0.2,0.1c0,0,0,0,0,0.1
	c-0.1,0.4-0.3,0.7-0.6,1c-0.3-0.2-0.5-0.5-0.7-0.8c-0.3-0.3-0.5-0.7-0.5-1.1C319.3,57.5,319.2,57.1,319.2,56.7z M320.4,61.3
	c0.5,0.3,1.1,0.5,1.7,0.5c-0.1,0.1-0.2,0.3-0.2,0.4v0.1h0.1c0,0,0-0.1,0.1-0.1l0,0c0.1,0,0.1-0.1,0.2-0.1c0.1,0,0.2,0.1,0.2,0.2
	c0,0.1-0.2,0.4-0.5,0.8c-0.9-0.8-1.7-1.7-2.4-2.8C319.7,60.8,320.1,61,320.4,61.3z"/>
<linearGradient id="SVGID_77_" gradientUnits="userSpaceOnUse" x1="314.592" y1="741.9693" x2="315.7971" y2="741.9693" gradientTransform="matrix(1 0 0 1 8 -688)">
	<stop  offset="0" style="stop-color:#03917D"/>
	<stop  offset="1" style="stop-color:#0FBCA7"/>
</linearGradient>
<path class="st76" d="M323.6,54.2c0.1-0.3,0.2-0.5,0.3-0.8c0-0.3-0.1-0.5-0.3-0.5c-0.3,0-0.5,0.2-0.5,0.6v0.1l-0.1,0.1h0.1l0.1-0.1
	c0.1-0.1,0.2-0.1,0.3-0.1c0.1,0,0.2,0.1,0.2,0.3c0,0.2-0.3,0.6-0.7,1.1c-0.1,0.1-0.1,0.2-0.1,0.2v0.1c0,0,0.1-0.1,0.2-0.2
	C323.1,54.8,323.4,54.5,323.6,54.2z"/>
<linearGradient id="SVGID_78_" gradientUnits="userSpaceOnUse" x1="320.1501" y1="739.851" x2="322.6588" y2="739.851" gradientTransform="matrix(1 0 0 1 8 -688)">
	<stop  offset="0" style="stop-color:#03917D"/>
	<stop  offset="1" style="stop-color:#0FBCA7"/>
</linearGradient>
<path class="st77" d="M328.5,51.7c0.1,0,0.1,0,0.1-0.1l0.1-0.1c0.1,0,0.2,0.2,0.3,0.6c0.1,0.3,0.2,0.5,0.3,0.8c0,0.1,0,0.2,0.1,0.2
	s0.1-0.1,0.1-0.2c0.1-0.3,0.1-0.5,0.2-0.7c0.1-0.8,0.3-1.2,0.5-1.2c0.1,0,0.1,0.1,0.2,0.2l0.1,0.1c0.1,0,0.1-0.1,0.2-0.2
	c0-0.1,0.1-0.1,0.1-0.2c0-0.1-0.1-0.2-0.2-0.3c-0.1-0.1-0.1-0.1-0.3-0.1c-0.2,0-0.3,0.2-0.5,0.5c-0.1,0.4-0.2,0.8-0.3,1.2
	c0,0-0.1,0.1-0.1,0.1v-0.1c-0.1-0.4-0.2-0.7-0.3-1.1c-0.1-0.2-0.4-0.4-0.7-0.4c0,0-0.1,0.1-0.2,0.3l-0.1,0.3c0,0.1,0.1,0.2,0.1,0.3
	C328.3,51.6,328.5,51.7,328.5,51.7z"/>
<linearGradient id="SVGID_79_" gradientUnits="userSpaceOnUse" x1="317.2481" y1="744.5248" x2="318.2568" y2="744.5248" gradientTransform="matrix(1 0 0 1 8 -688)">
	<stop  offset="0" style="stop-color:#03917D"/>
	<stop  offset="1" style="stop-color:#0FBCA7"/>
</linearGradient>
<path class="st78" d="M325.5,56.1v0.1V56.1l0.1,0.1c0.1,0,0.1-0.1,0.2-0.1c0.1,0,0.2,0.1,0.2,0.2c0,0.2-0.2,0.5-0.6,1
	c-0.1,0.1-0.1,0.1-0.1,0.1c0.1,0,0.1-0.1,0.2-0.1c0.2-0.2,0.4-0.5,0.5-0.7c0.1-0.2,0.2-0.4,0.3-0.7c0-0.3-0.1-0.4-0.3-0.4
	C325.7,55.6,325.6,55.8,325.5,56.1z"/>
<linearGradient id="SVGID_80_" gradientUnits="userSpaceOnUse" x1="316.535" y1="741.8012" x2="320.1502" y2="741.8012" gradientTransform="matrix(1 0 0 1 8 -688)">
	<stop  offset="0" style="stop-color:#03917D"/>
	<stop  offset="1" style="stop-color:#0FBCA7"/>
</linearGradient>
<path class="st79" d="M325.4,53.4c1.1,0,1.5,0.1,1.5,0.3l-0.1,0.1c-0.3,0.3-0.7,0.5-1,0.7c-0.4,0.2-0.8,0.4-1.2,0.7
	c-0.1,0.1-0.2,0.1-0.2,0.2l0.2-0.1c0.1,0,0.1,0,0.1-0.1c0.7-0.1,1.3-0.4,1.9-0.7c0.4-0.3,0.7-0.6,0.9-1c0.2-0.3,0.4-0.5,0.5-0.9
	c0-0.3-0.6-0.5-1.8-0.5c-0.3,0-0.5,0-0.7,0.1c-0.3,0-0.5,0.1-0.6,0.3l-0.4,0.7c0,0.1,0,0.1,0,0.2c0,0,0.1,0.1,0.3,0.1
	C325,53.5,325.2,53.5,325.4,53.4z"/>
<linearGradient id="SVGID_81_" gradientUnits="userSpaceOnUse" x1="7.1559" y1="746.7607" x2="84.1324" y2="746.7607" gradientTransform="matrix(1 0 0 1 8 -688)">
	<stop  offset="0" style="stop-color:#03917D"/>
	<stop  offset="1" style="stop-color:#0FBCA7"/>
</linearGradient>
<path class="st80" d="M92.1,115.9H25.9c-5.1,0-9.3-5.3-9.3-11.9V13.5c0-6.5,4.1-11.9,9.3-11.9h66.2"/>
<path class="st81" d="M143.5,100.4l-21.1,17.5h221c4.9,0,8.9-4,8.9-8.9v-8.7L143.5,100.4L143.5,100.4z"/>
</svg>
