<svg id="Layer_1" data-name="Layer 1" xmlns="http://www.w3.org/2000/svg" xmlns:xlink="http://www.w3.org/1999/xlink" width="150" height="131.39001" viewBox="0 0 150 131.39001">
  <defs>
    <linearGradient id="linear-gradient" y1="59" x2="150" y2="59" gradientTransform="matrix(1, 0, 0, -1, 0, 124.69261)" gradientUnits="userSpaceOnUse">
      <stop offset="0" stop-color="#a533c1"/>
      <stop offset="0.10516" stop-color="#ad30b9"/>
      <stop offset="0.69585" stop-color="#d9228f"/>
      <stop offset="0.99582" stop-color="#ea1c7f"/>
    </linearGradient>
    <linearGradient id="linear-gradient-2" x1="75.005" y1="11.05005" x2="75.005" y2="120.34003" gradientTransform="matrix(1, 0, 0, 1, 0, 0)" xlink:href="#linear-gradient"/>
  </defs>
  <path d="M109.74,5.51762H40.26l-34.73,60.17,34.73,60.17h69.48l34.74-60.17Zm27.43,61.78-.54.94-.54.93-.54.94-.54.93-.54.93-.53.93-.54.94-.54.93-1.08,1.86-.54.94-.54.93-.54.94-.53.93-.54.93-.54.93-.54.94-.54.93-.54.94-.54.93-.53.93-.54.93-.54.94-.54.93-.54.93-.54.93-.54.93994-.54.93006-.53.93-.54.94-.54.93-1.08,1.86-.54.94-.54.93-.53.93-.54.93-.54.94-.54.93-.54.93-.53.93v.01l-.55.93-.53.93-.54.94-1.08,1.86-.54.93-.53.93-.54.94-.01.01-.53.93-.54.93-.54.93-.54.93-.54.94-.54.93-.53.93-.46.79H43.45l-.13-.23-1.55-2.67-.01-.01-1.54-2.69-1.54-2.68-.01-.01-1.56-2.69-1.53-2.67-.01-.01-1.56-2.69-1.55-2.68-1.55-2.69-1.55-2.68v-.01l-1.54-2.66v-.01l-1.56-2.69-.01-.01-1.54-2.67-.01-.01-1.54-2.68v-.01l-1.55-2.67-.01-.01-1.54-2.68v-.01l-1.55-2.68-1.55-2.69-1.55005-2.68-1.56-2.69-.00995-.02-1.53-2.66-.41-.71.4-.69.54-.93.54-.93v-.01l.53-.93.54-.93.54-.93.54-.94,1.08-1.86.53-.93.55-.94.53-.93.54-.93.54-.93005.54-.94.53-.93.54-.93.54-.93.54-.94.54-.93.54-.93.54-.94.53-.93,1.08-1.86.54-.94.54-.93006.54-.93.54-.93.54-.94.53-.93.54-.93.54-.93.54-.94.54-.93.54-.93.53-.93.54-.94.54-.93.54-.93.54-.94,1.08-1.86.53-.93.54-.94.54-.93v-.01l.54-.92.54-.93.54-.94.54-.93.54-.94.53-.93.54-.93006.54-.93.54-.93.54-.94.54-.94.54-.92.45-.79h63.1l.12.21,1.54,2.68.01.01,1.55,2.67,1.55,2.69,1.55,2.68994,1.55,2.68006,1.56,2.69.01.00995,1.53,2.67,1.56,2.69995,1.55,2.68006,1.55,2.69,1.55,2.68,1.55,2.69,1.55,2.68,1.55,2.69,1.55,2.68,1.56,2.7,1.53,2.67.01.01,1.56,2.69,1.55,2.68,1.55,2.69.41.71-.4.68Z" transform="translate(0 0.0024)" fill="none"/>
  <path d="M149.26,62.92766l-4.78-8.28-.65-1.14-.01-.01-1.56-2.68994-1.53-2.67-.01-.01-1.56-2.69v-.00995l-1.55-2.67005v-.01l-1.55-2.68994-1.55-2.67v-.01l-1.54-2.67-1.56-2.69-.00995-.01-1.54-2.68-1.55-2.69-1.55-2.68-1.56-2.69-.01-.02-1.52-2.66-.01-.01-1.56-2.69-5.99-10.37-1.59-2.76a5.52226,5.52226,0,0,0-4.78-2.76H40.26a5.52226,5.52226,0,0,0-4.78,2.76l-2.93,5.07v.01l-.3.52-.54.93-.54.93-.54.93-.54.94-.53.93-.54.94-.54.93-1.08,1.86-.54.94-.54.93005-.53.93-1.08,1.86-.54.94-.54.93-.54.94-.54.93-.53.93-.54.93-.54.94-.54.93-.54.93-.53.93-.55.94-.54.93-.53.93-.54.93-.54.94-.54.93-.54.93-.53.93v.01l-.55005.93-.53.93-.54.93-.54.94-.54.93005-.54.93-.53.93v.01l-.54.93-.54.93-1.08,1.86-.54.94-.53.93-.54.93-.54.93-.54.94-.54.93005-.33.56995L.74,62.92766a5.53569,5.53569,0,0,0,0,5.53l4.79,8.29.62994,1.1,1.56,2.7,1.55005,2.68,1.55,2.69,1.55,2.68,1.56,2.7,1.54,2.67,1.56006,2.7,1.55,2.68,1.56,2.7,1.53,2.67.01.01,1.56,2.69,1.55,2.68.01.01,1.53,2.68.01.01,1.55,2.68,6,10.38,1.59,2.76a5.55276,5.55276,0,0,0,4.78,2.77h69.48a5.5316,5.5316,0,0,0,4.78-2.77l2.93-5.07v-.01l.3-.52.54-.93.54-.92v-.01l.53-.93h.01l.54-.94.53-.93.54-.93.54-.93006.54-.93.54-.94.54-.93.54-.94.53-.93,1.08-1.86.54-.94,1.07995-1.86.53-.93.54-.94.54-.93.54-.93.54-.93.54-.94.54-.93.53-.93.55-.94.53-.93.54-.93.54-.93.54-.94.54-.93.54-.93.53-.93006.54-.93994.54-.93.54-.94,1.08-1.86.54-.93.54-.94.53-.93.55-.93.53-.93.54-.94.54-.93.54-.94.54-.93.54-.93006.53-.93.34-.57995,4.78-8.28a5.53569,5.53569,0,0,0,0-5.53Zm-11.56,3.44-.53.93-.54.94-.54.93-.54.94-.54.93-.54.93-.53.93-.54.94-.54.93-1.08,1.86-.54.94-.54.93-.54.94-.53.93-.54.93-.54.93-.54.94-.54.93-.54.94-.54.93-.53.93-.54.93-.54.94-.54.93-.54.93-.54.93-.54.93994-.54.93006-.53.93-.54.94-.54.93-1.08,1.86-.54.94-.54.93-.53.93-.54.93-.54.94-.54.93-.54.93-.53.93v.01l-.55.93-.53.93-.54.94-1.08,1.86-.54.93-.53.93-.54.94-.01.01-.53.93-.54.93-.54.93-.54.93-.54.94-.54.93-.53.93-.46.79H43.45l-.13-.23-1.55-2.67-.01-.01-1.54-2.69-1.54-2.68-.01-.01-1.56-2.69-1.53-2.67-.01-.01-1.56-2.69-1.55-2.68-1.55-2.69-1.55-2.68v-.01l-1.54-2.66v-.01l-1.56-2.69-.01-.01-1.54-2.67-.01-.01-1.54-2.68v-.01l-1.55-2.67-.01-.01-1.54-2.68v-.01l-1.55-2.68-1.55-2.69-1.55005-2.68-1.56-2.69-.00995-.02-1.53-2.66-.41-.71.4-.69.54-.93.54-.93v-.01l.53-.93.54-.93.54-.93.54-.94,1.08-1.86.53-.93.55-.94.53-.93.54-.93.54-.93005.54-.94.53-.93.54-.93.54-.93.54-.94.54-.93.54-.93.54-.94.53-.93,1.08-1.86.54-.94.54-.93006.54-.93.54-.93.54-.94.53-.93.54-.93.54-.93.54-.94.54-.93.54-.93.53-.93.54-.94.54-.93.54-.93.54-.94,1.08-1.86.53-.93.54-.94.54-.93v-.01l.54-.92.54-.93.54-.94.54-.93.54-.94.53-.93.54-.93006.54-.93.54-.93.54-.94.54-.94.54-.92.45-.79h63.1l.12.21,1.54,2.68.01.01,1.55,2.67,1.55,2.69,1.55,2.68994,1.55,2.68006,1.56,2.69.01.00995,1.53,2.67,1.56,2.69995,1.55,2.68006,1.55,2.69,1.55,2.68,1.55,2.69,1.55,2.68,1.55,2.69,1.55,2.68,1.56,2.7,1.53,2.67.01.01,1.56,2.69,1.55,2.68,1.55,2.69.41.71Z" transform="translate(0 0.0024)" fill="url(#linear-gradient)"/>
  <polygon points="138.105 65.69 137.705 66.37 137.175 67.3 136.635 68.24 136.095 69.17 135.555 70.11 135.015 71.04 134.475 71.97 133.945 72.9 133.405 73.84 132.865 74.77 131.785 76.63 131.245 77.57 130.705 78.5 130.165 79.44 129.635 80.37 129.095 81.3 128.555 82.23 128.015 83.17 127.475 84.1 126.935 85.04 126.395 85.97 125.865 86.9 125.325 87.83 124.785 88.77 124.245 89.7 123.705 90.63 123.165 91.56 122.625 92.5 122.085 93.43 121.555 94.36 121.015 95.3 120.475 96.23 119.395 98.09 118.855 99.03 118.315 99.96 117.785 100.89 117.245 101.82 116.705 102.76 116.165 103.69 115.625 104.62 115.095 105.55 115.095 105.56 114.545 106.49 114.015 107.42 113.475 108.36 112.395 110.22 111.855 111.15 111.325 112.08 110.785 113.02 110.775 113.03 110.245 113.96 109.705 114.89 109.165 115.82 108.625 116.75 108.085 117.69 107.545 118.62 107.015 119.55 106.555 120.34 43.455 120.34 43.325 120.11 41.775 117.44 41.765 117.43 40.225 114.74 38.685 112.06 38.675 112.05 37.115 109.36 35.585 106.69 35.575 106.68 34.015 103.99 32.465 101.31 30.915 98.62 29.365 95.94 29.365 95.93 27.825 93.27 27.825 93.26 26.265 90.57 26.255 90.56 24.715 87.89 24.705 87.88 23.165 85.2 23.165 85.19 21.615 82.52 21.605 82.51 20.065 79.83 20.065 79.82 18.515 77.14 16.965 74.45 15.415 71.77 13.855 69.08 13.845 69.06 12.315 66.4 11.905 65.69 12.305 65 12.845 64.07 13.385 63.14 13.385 63.13 13.915 62.2 14.455 61.27 14.995 60.34 15.535 59.4 16.615 57.54 17.145 56.61 17.695 55.67 18.225 54.74 18.765 53.81 19.305 52.88 19.845 51.94 20.375 51.01 20.915 50.08 21.455 49.15 21.995 48.21 22.535 47.28 23.075 46.35 23.615 45.41 24.145 44.48 25.225 42.62 25.765 41.68 26.305 40.75 26.845 39.82 27.385 38.89 27.925 37.95 28.455 37.02 28.995 36.09 29.535 35.16 30.075 34.22 30.615 33.29 31.155 32.36 31.685 31.43 32.225 30.49 32.765 29.56 33.305 28.63 33.845 27.69 34.925 25.83 35.455 24.9 35.995 23.96 36.535 23.03 36.535 23.02 37.075 22.1 37.615 21.17 38.155 20.23 38.695 19.3 39.235 18.36 39.765 17.43 40.305 16.5 40.845 15.57 41.385 14.64 41.925 13.7 42.465 12.76 43.005 11.84 43.455 11.05 106.555 11.05 106.675 11.26 108.215 13.94 108.225 13.95 109.775 16.62 111.325 19.31 112.875 22 114.425 24.68 115.985 27.37 115.995 27.38 117.525 30.05 119.085 32.75 120.635 35.43 122.185 38.12 123.735 40.8 125.285 43.49 126.835 46.17 128.385 48.86 129.935 51.54 131.495 54.24 133.025 56.91 133.035 56.92 134.595 59.61 136.145 62.29 137.695 64.98 138.105 65.69" fill="url(#linear-gradient-2)"/>
</svg>
