<svg xmlns="http://www.w3.org/2000/svg" xmlns:xlink="http://www.w3.org/1999/xlink" width="150" height="150" viewBox="0 0 150 150">
  <defs>
    <linearGradient id="linear-gradient" x1="148.96758" y1="148.96753" x2="-9.81749" y2="-9.81754" gradientUnits="userSpaceOnUse">
      <stop offset="0" stop-color="#ff5572"/>
      <stop offset="1" stop-color="#ffbc00"/>
    </linearGradient>
    <radialGradient id="radial-gradient" cx="80.18303" cy="78.09969" r="60.97566" gradientTransform="translate(137.99208 -17.74903) rotate(76.84949)" gradientUnits="userSpaceOnUse">
      <stop offset="0"/>
      <stop offset="1" stop-color="#fff"/>
    </radialGradient>
    <linearGradient id="linear-gradient-2" x1="10.91642" y1="10.91639" x2="155.6917" y2="155.69167" xlink:href="#linear-gradient"/>
  </defs>
  <g style="isolation: isolate">
    <g id="Layer_1" data-name="Layer 1">
      <circle cx="75" cy="75" r="75" fill="url(#linear-gradient)"/>
      <circle cx="80.18296" cy="78.09963" r="60.97573" transform="translate(-14.11097 138.41143) rotate(-76.84949)" fill="url(#radial-gradient)" style="mix-blend-mode: multiply"/>
      <path d="M126.78,58.81031h0a12.69351,12.69351,0,0,1-3.71834-8.97646h0a22.89564,22.89564,0,0,0-22.89546-22.89547h0a12.69365,12.69365,0,0,1-8.97646-3.7183h0a22.89551,22.89551,0,0,0-32.37909,0h0a12.69459,12.69459,0,0,1-8.97648,3.7183h0A22.8957,22.8957,0,0,0,26.93839,49.83385h0a12.69445,12.69445,0,0,1-3.718,8.97646h0a22.89555,22.89555,0,0,0,0,32.37911h0a12.69539,12.69539,0,0,1,3.718,8.97646h0a22.89575,22.89575,0,0,0,22.89573,22.89574h0a12.69543,12.69543,0,0,1,8.97648,3.718h0a22.89553,22.89553,0,0,0,32.37909,0h0a12.69449,12.69449,0,0,1,8.97646-3.718h0a22.8957,22.8957,0,0,0,22.89546-22.89574h0A12.69445,12.69445,0,0,1,126.78,91.18942h0A22.89559,22.89559,0,0,0,126.78,58.81031Z" transform="translate(0 0)" fill="url(#linear-gradient-2)"/>
      <path d="M27.96548,101.19324a12.69447,12.69447,0,0,0-3.718-8.97646v-.00026a22.89556,22.89556,0,0,1,0-32.37912,12.69445,12.69445,0,0,0,3.718-8.97646A22.89569,22.89569,0,0,1,50.86121,27.96548a12.69492,12.69492,0,0,0,8.97646-3.718,22.89506,22.89506,0,0,1,32.37911,0,12.69492,12.69492,0,0,0,8.97646,3.718A22.79163,22.79163,0,0,1,116.845,34.18262a22.8081,22.8081,0,0,0-16.67885-7.24424h0a12.69474,12.69474,0,0,1-8.97646-3.7183,22.89551,22.89551,0,0,0-32.37909,0h-.00029a12.6945,12.6945,0,0,1-8.97619,3.7183A22.89552,22.89552,0,0,0,26.93839,49.83385a12.69492,12.69492,0,0,1-3.718,8.97646,22.89555,22.89555,0,0,0,0,32.37911,12.69539,12.69539,0,0,1,3.718,8.97646,22.80718,22.80718,0,0,0,7.244,16.67833A22.78945,22.78945,0,0,1,27.96548,101.19324Z" transform="translate(0 0)" fill="#fff" style="mix-blend-mode: overlay"/>
    </g>
  </g>
</svg>
