<?xml version="1.0" encoding="utf-8"?>
<!-- Generator: Adobe Illustrator 25.0.0, SVG Export Plug-In . SVG Version: 6.00 Build 0)  -->
<svg version="1.1" id="Layer_1" xmlns="http://www.w3.org/2000/svg" xmlns:xlink="http://www.w3.org/1999/xlink" x="0px" y="0px"
	 viewBox="0 0 150 150" style="enable-background:new 0 0 150 150;" xml:space="preserve">
<style type="text/css">
	.st0{fill:url(#SVGID_1_);}
	.st1{fill:url(#SVGID_2_);}
	.st2{fill:url(#SVGID_3_);}
	.st3{fill:url(#SVGID_4_);}
</style>
<g>
	<g>
		
			<linearGradient id="SVGID_1_" gradientUnits="userSpaceOnUse" x1="368.2388" y1="-119.2207" x2="503.9443" y2="-119.2207" gradientTransform="matrix(-1 0 0 -1 503.9443 -44.2207)">
			<stop  offset="0" style="stop-color:#E19000"/>
			<stop  offset="1" style="stop-color:#FFCC1E"/>
		</linearGradient>
		<path class="st0" d="M0,116.2l0-80.6L13.6,23h70c28.8,0,52.2,23.3,52.2,52.1c0,28.4-22.9,51.9-52.2,51.9h-70L0,116.2z"/>
	</g>
	<g>
		<g>
			
				<linearGradient id="SVGID_2_" gradientUnits="userSpaceOnUse" x1="487.538" y1="-119.2262" x2="503.9443" y2="-119.2262" gradientTransform="matrix(-1 0 0 -1 503.9443 -44.2207)">
				<stop  offset="0" style="stop-color:#E19000"/>
				<stop  offset="1" style="stop-color:#FFCC1E"/>
			</linearGradient>
			<polygon class="st1" points="0,138.5 0,11.5 16.4,23 16.4,127 			"/>
			
				<linearGradient id="SVGID_3_" gradientUnits="userSpaceOnUse" x1="487.5339" y1="-55.708" x2="503.9443" y2="-55.708" gradientTransform="matrix(-1 0 0 -1 503.9443 -44.2207)">
				<stop  offset="0" style="stop-color:#E15E00"/>
				<stop  offset="1" style="stop-color:#FF9A1E"/>
			</linearGradient>
			<path class="st2" d="M0,11.5L0,11.5C0,5,5.2,0,11.7,0l4.7,0v23h-4.7C5.2,23,0,17.9,0,11.5z"/>
		</g>
		
			<linearGradient id="SVGID_4_" gradientUnits="userSpaceOnUse" x1="487.5339" y1="-182.7346" x2="503.9443" y2="-182.7346" gradientTransform="matrix(-1 0 0 -1 503.9443 -44.2207)">
			<stop  offset="0" style="stop-color:#E15E00"/>
			<stop  offset="1" style="stop-color:#FF9A1E"/>
		</linearGradient>
		<path class="st3" d="M0,138.5L0,138.5C0,145,5.2,150,11.7,150h4.7v-23h-4.7C5.2,127,0,132.1,0,138.5z"/>
	</g>
</g>
</svg>
