<?xml version="1.0" encoding="utf-8"?>
<!-- Generator: Adobe Illustrator 25.0.0, SVG Export Plug-In . SVG Version: 6.00 Build 0)  -->
<svg version="1.1" id="Layer_1" xmlns="http://www.w3.org/2000/svg" xmlns:xlink="http://www.w3.org/1999/xlink" x="0px" y="0px"
	 viewBox="0 0 150 150" style="enable-background:new 0 0 150 150;" xml:space="preserve">
<style type="text/css">
	.st0{fill:url(#SVGID_1_);}
	.st1{fill:url(#SVGID_2_);}
</style>
<linearGradient id="SVGID_1_" gradientUnits="userSpaceOnUse" x1="115.3402" y1="956.2332" x2="214.6402" y2="956.2332" gradientTransform="matrix(1 0 0 1 -104.7402 -886.2207)">
	<stop  offset="0" style="stop-color:#673D89"/>
	<stop  offset="1" style="stop-color:#A379C5"/>
</linearGradient>
<path class="st0" d="M10.6,0h88.5c6,0,10.8,4.7,10.8,10.7c0,34.3,0,104,0,124.6c0,4-4.6,6.1-7.6,3.6l-30-25.2
	c-3.8-3.2-9.4-3.2-13.2,0L29,138.9c-3,2.6-7.7,0.4-7.7-3.6c0-20.3,0-89.9,0-124.6L10.6,0z"/>
<linearGradient id="SVGID_2_" gradientUnits="userSpaceOnUse" x1="104.7092" y1="893.8707" x2="126.0092" y2="893.8707" gradientTransform="matrix(1 0 0 1 -104.7402 -886.2207)">
	<stop  offset="0" style="stop-color:#4A1C6F"/>
	<stop  offset="1" style="stop-color:#8658AB"/>
</linearGradient>
<path class="st1" d="M10.6,0L10.6,0C4.6,0,0,4.8,0,10.8v4.5h21.3v-4.5C21.3,4.8,16.6,0,10.6,0z"/>
</svg>
