<svg xmlns="http://www.w3.org/2000/svg" xmlns:xlink="http://www.w3.org/1999/xlink" width="150" height="150" viewBox="0 0 150 150">
  <defs>
    <linearGradient id="linear-gradient" x1="155.10059" y1="155.10059" x2="26.75759" y2="26.75759" gradientUnits="userSpaceOnUse">
      <stop offset="0" stop-color="#5c007d"/>
      <stop offset="1" stop-color="#d11941"/>
    </linearGradient>
    <radialGradient id="radial-gradient" cx="80.18303" cy="78.09969" r="60.97566" gradientTransform="translate(78.70992 -33.82303) rotate(45)" gradientUnits="userSpaceOnUse">
      <stop offset="0"/>
      <stop offset="1" stop-color="#fff"/>
    </radialGradient>
    <linearGradient id="linear-gradient-2" x1="23.42119" y1="23.42118" x2="117.51021" y2="117.51019" xlink:href="#linear-gradient"/>
  </defs>
  <g style="isolation: isolate">
    <g id="Layer_1" data-name="Layer 1">
      <g>
        <circle cx="75" cy="75" r="75" fill="url(#linear-gradient)"/>
        <circle cx="80.18296" cy="78.09976" r="60.97556" transform="translate(-31.73983 79.57281) rotate(-45)" fill="url(#radial-gradient)" style="mix-blend-mode: multiply"/>
        <path d="M126.78,58.81058v-.00027a12.69335,12.69335,0,0,1-3.71834-8.97619v-.00027a22.89563,22.89563,0,0,0-22.89546-22.89546h0a12.6945,12.6945,0,0,1-8.97646-3.718h0a22.89551,22.89551,0,0,0-32.37908,0h0a12.69546,12.69546,0,0,1-8.97649,3.718h0A22.89569,22.89569,0,0,0,26.93839,49.83385v.00027a12.69429,12.69429,0,0,1-3.718,8.97619v.00027a22.89555,22.89555,0,0,0,0,32.37911h0a12.69445,12.69445,0,0,1,3.718,8.97646h0a22.89569,22.89569,0,0,0,22.89573,22.89546h0a12.69546,12.69546,0,0,1,8.97649,3.71805v.00026a22.8955,22.8955,0,0,0,32.37908,0v-.00026a12.6945,12.6945,0,0,1,8.97646-3.71805h0a22.89563,22.89563,0,0,0,22.89546-22.89546h0A12.69351,12.69351,0,0,1,126.78,91.18969h0A22.89559,22.89559,0,0,0,126.78,58.81058Z" transform="translate(0)" fill="url(#linear-gradient-2)"/>
        <path d="M28.78363,99.433a12.47363,12.47363,0,0,0-3.65337-8.82031h0a22.4973,22.4973,0,0,1,0-31.81589,12.4747,12.4747,0,0,0,3.65337-8.82058A22.49721,22.49721,0,0,1,51.2811,27.47929a12.47434,12.47434,0,0,0,8.82031-3.65363,22.49681,22.49681,0,0,1,31.81589,0,12.47434,12.47434,0,0,0,8.82032,3.65363,22.39613,22.39613,0,0,1,15.3795,6.10873A22.4114,22.4114,0,0,0,99.72839,26.4698h0a12.47369,12.47369,0,0,1-8.82032-3.65337,22.49679,22.49679,0,0,0-31.81586,0h-.00028a12.47344,12.47344,0,0,1-8.82006,3.65337A22.49727,22.49727,0,0,0,27.7744,48.967,12.47472,12.47472,0,0,1,24.121,57.78758a22.497,22.497,0,0,0,0,31.81563,12.47473,12.47473,0,0,1,3.65336,8.82058,22.41131,22.41131,0,0,0,7.118,16.38821A22.39415,22.39415,0,0,1,28.78363,99.433Z" transform="translate(0)" fill="#fff" style="mix-blend-mode: overlay"/>
      </g>
    </g>
  </g>
</svg>
