<?xml version="1.0" encoding="utf-8"?>
<!-- Generator: Adobe Illustrator 25.0.0, SVG Export Plug-In . SVG Version: 6.00 Build 0)  -->
<svg version="1.1" id="Layer_1" xmlns="http://www.w3.org/2000/svg" xmlns:xlink="http://www.w3.org/1999/xlink" x="0px" y="0px"
	 viewBox="0 0 150 150" style="enable-background:new 0 0 150 150;" xml:space="preserve">
<style type="text/css">
	.st0{fill:url(#SVGID_1_);}
	.st1{fill:url(#SVGID_2_);}
	.st2{fill:url(#SVGID_3_);}
	.st3{fill:#333333;}
</style>
<linearGradient id="SVGID_1_" gradientUnits="userSpaceOnUse" x1="172.4378" y1="16.117" x2="148.2705" y2="16.117" gradientTransform="matrix(-1 0 0 -1 172.66 152)">
	<stop  offset="0" style="stop-color:#99005C"/>
	<stop  offset="1" style="stop-color:#D53B98"/>
</linearGradient>
<path class="st0" d="M15.3,150c-0.7-5.1-1-10.5-1.2-16c3.4-0.3,6.7-0.8,10.1-1.5v-10.7l-10.2,5.5l-13.9,7.4L15.3,150z"/>
<linearGradient id="SVGID_2_" gradientUnits="userSpaceOnUse" x1="62.08" y1="139.9164" x2="30.4184" y2="139.9164" gradientTransform="matrix(-1 0 0 -1 172.66 152)">
	<stop  offset="0" style="stop-color:#99005C"/>
	<stop  offset="1" style="stop-color:#D53B98"/>
</linearGradient>
<path class="st1" d="M110.5,24.2h22c0.7-3.4,1.2-6.7,1.5-10.2h8.2L134.8,0l-13.9,13.9L110.5,24.2z"/>
<linearGradient id="SVGID_3_" gradientUnits="userSpaceOnUse" x1="38.1131" y1="84.6685" x2="172.66" y2="84.6685" gradientTransform="matrix(-1 0 0 -1 172.66 152)">
	<stop  offset="0" style="stop-color:#B32079"/>
	<stop  offset="1" style="stop-color:#EF5CB5"/>
</linearGradient>
<path class="st2" d="M0,36v98.6c4.8,0,9.4-0.2,14.1-0.7c3.4-0.3,6.7-0.8,10.1-1.5c55-9.9,98.3-53.3,108.2-108.3
	c0.7-3.4,1.2-6.7,1.5-10.2c0.5-4.6,0.7-9.3,0.7-13.9L36,0C16.2,0,0,16.2,0,36z"/>
<path class="st3" d="M252.4,167.2l0.2,0c-0.1,0.2-0.1,0.3-0.3,0.4c-0.1,0.1-0.2,0.1-0.4,0.1c-0.2,0-0.3,0-0.4-0.2
	c-0.1-0.1-0.1-0.2-0.1-0.4c0-0.2,0-0.3,0.1-0.5c0.1-0.2,0.2-0.3,0.3-0.3c0.1-0.1,0.2-0.1,0.4-0.1c0.2,0,0.3,0,0.4,0.1
	c0.1,0.1,0.1,0.2,0.1,0.3l-0.2,0c0-0.1,0-0.2-0.1-0.2c-0.1-0.1-0.1-0.1-0.2-0.1c-0.1,0-0.2,0-0.3,0.1c-0.1,0.1-0.1,0.2-0.2,0.3
	c0,0.1-0.1,0.2-0.1,0.4c0,0.1,0,0.2,0.1,0.3c0.1,0.1,0.1,0.1,0.2,0.1s0.2,0,0.2-0.1C252.3,167.4,252.4,167.3,252.4,167.2z"/>
<path class="st3" d="M252.8,167.7l0.3-1.4h0.2l-0.3,1.4H252.8z M253.2,166l0.1-0.3h0.2l-0.1,0.3H253.2z"/>
<path class="st3" d="M220.2,171.2l0.1-0.3h0.3l-0.1,0.3H220.2z"/>
</svg>
