<?xml version="1.0" encoding="utf-8"?>
<!-- Generator: Adobe Illustrator 25.0.0, SVG Export Plug-In . SVG Version: 6.00 Build 0)  -->
<svg version="1.1" id="Layer_1" xmlns="http://www.w3.org/2000/svg" xmlns:xlink="http://www.w3.org/1999/xlink" x="0px" y="0px"
	 viewBox="0 0 150 150" style="enable-background:new 0 0 150 150;" xml:space="preserve">
<style type="text/css">
	.st0{fill:url(#SVGID_1_);}
	.st1{fill:url(#SVGID_2_);}
	.st2{fill:url(#SVGID_3_);}
	.st3{fill:url(#SVGID_4_);}
</style>
<linearGradient id="SVGID_1_" gradientUnits="userSpaceOnUse" x1="-383.8547" y1="-811.3304" x2="-519.6546" y2="-811.3304" gradientTransform="matrix(-1 0 0 -1 -383.8547 -736.33)">
	<stop  offset="0" style="stop-color:#B32079"/>
	<stop  offset="1" style="stop-color:#EF5CB5"/>
</linearGradient>
<path class="st0" d="M0,116.2V35.6L13.6,23h70c28.7-0.1,52.1,23.1,52.2,51.8S112.7,126.9,84,127c-0.1,0-0.3,0-0.4,0h-70L0,116.2z"/>
<linearGradient id="SVGID_2_" gradientUnits="userSpaceOnUse" x1="-383.8547" y1="-811.3304" x2="-400.2548" y2="-811.3304" gradientTransform="matrix(-1 0 0 -1 -383.8547 -736.33)">
	<stop  offset="0" style="stop-color:#B32079"/>
	<stop  offset="1" style="stop-color:#EF5CB5"/>
</linearGradient>
<polygon class="st1" points="0,138.5 0,11.5 16.4,23 16.4,127 "/>
<linearGradient id="SVGID_3_" gradientUnits="userSpaceOnUse" x1="-383.8547" y1="-747.8299" x2="-400.2548" y2="-747.8299" gradientTransform="matrix(-1 0 0 -1 -383.8547 -736.33)">
	<stop  offset="0" style="stop-color:#99005C"/>
	<stop  offset="1" style="stop-color:#D53B98"/>
</linearGradient>
<path class="st2" d="M0,11.5L0,11.5C0,5.2,5.1,0,11.5,0c0.1,0,0.2,0,0.2,0h4.7v23h-4.7C5.3,23.1,0.1,18,0,11.6C0,11.6,0,11.5,0,11.5
	z"/>
<linearGradient id="SVGID_4_" gradientUnits="userSpaceOnUse" x1="-383.8547" y1="-874.8309" x2="-400.2548" y2="-874.8309" gradientTransform="matrix(-1 0 0 -1 -383.8547 -736.33)">
	<stop  offset="0" style="stop-color:#99005C"/>
	<stop  offset="1" style="stop-color:#D53B98"/>
</linearGradient>
<path class="st3" d="M0,138.5L0,138.5c0,6.3,5.1,11.5,11.5,11.5c0.1,0,0.2,0,0.2,0h4.7v-23h-4.7c-6.4-0.1-11.6,5-11.7,11.4
	C0,138.4,0,138.5,0,138.5z"/>
</svg>
