<svg id="Layer_1" data-name="Layer 1" xmlns="http://www.w3.org/2000/svg" xmlns:xlink="http://www.w3.org/1999/xlink" width="150" height="150" viewBox="0 0 150 150">
  <defs>
    <linearGradient id="Degradado_sin_nombre_2" data-name="Degradado sin nombre 2" x1="-99.59716" y1="123.63447" x2="-231.62163" y2="123.63447" gradientTransform="translate(-13.3575 -104.0725) rotate(-74.51975)" gradientUnits="userSpaceOnUse">
      <stop offset="0" stop-color="#31d4f0"/>
      <stop offset="0.26337" stop-color="#26bce6"/>
      <stop offset="0.81699" stop-color="#0a7fce"/>
      <stop offset="1" stop-color="#0069c5"/>
    </linearGradient>
    <linearGradient id="Degradado_sin_nombre_2-2" x1="-19.29171" y1="155.04965" x2="-150.89193" y2="155.04965" gradientTransform="matrix(0.5764, -0.8172, 0.8172, 0.5764, -2.2623, -73.8177)" xlink:href="#Degradado_sin_nombre_2"/>
  </defs>
  <g>
    <path d="M118.17542,73.75565c-7.223,12.24343-20.34386,21.17224-23.88849,34.93835-2.143,8.32263-.62087,17.9636-5.79343,24.82695-4.365,5.79157-12.67537,7.70065-19.65308,5.72389s-12.65585-7.24119-16.5945-13.33082-6.35163-13.01677-8.72835-19.86859L24.32209,50.70874c-1.78412-5.143-3.57531-10.76964-1.778-15.908C24.869,28.15439,32.59229,24.76019,39.63266,24.877c7.04036.11658,13.71442,2.90146,20.43961,4.98737,6.7252,2.08572,14.15158,3.46523,20.68581.84176,8.14766-3.2713,13.00486-10.98682,22.2983-11.74529,7.55264-.61658,11.16366,3.02344,14.74845,9.30944C125.66112,42.04658,126.32865,59.93506,118.17542,73.75565Z" opacity="0.46" fill="url(#Degradado_sin_nombre_2)"/>
    <path d="M22.14042,63.928C14.57068,70.26978,8.61176,79.8717,10.283,89.60433a20.085,20.085,0,0,0,17.90168,16.146c5.59764.3756,11.19248-1.6668,16.76055-.98011,9.74807,1.20231,16.45206,10.12,21.67428,18.4385,5.222,8.31854,11.07979,17.532,20.57517,20.04319,8.82021,2.33247,18.49205-2.31686,23.85279-9.69936,5.36074-7.38231,6.9552-16.9411,6.43772-26.04989-.51767-9.10862-2.96449-17.97811-5.00113-26.8714-2.03682-8.8931-3.68056-18.05173-2.56174-27.10642,1.06322-8.60564,4.603-16.95969,4.06342-25.61386C113.11646,13.96972,100.07441,1.91577,86.108,2.14541A27.86372,27.86372,0,0,0,64.44937,13.87935c-3.62533,5.18744-2.99851,9.8866-3.78208,15.76036C58.271,47.602,34.226,53.803,22.14042,63.928Z" fill="url(#Degradado_sin_nombre_2-2)"/>
  </g>
</svg>
