<?xml version="1.0" encoding="utf-8"?>
<!-- Generator: Adobe Illustrator 25.0.0, SVG Export Plug-In . SVG Version: 6.00 Build 0)  -->
<svg version="1.1" id="Layer_1" xmlns="http://www.w3.org/2000/svg" xmlns:xlink="http://www.w3.org/1999/xlink" x="0px" y="0px"
	 viewBox="0 0 150 131.4" style="enable-background:new 0 0 150 131.4;" xml:space="preserve">
<style type="text/css">
	.st0{fill:none;}
	.st1{fill:url(#SVGID_1_);}
	.st2{fill:url(#SVGID_2_);}
</style>
<path class="st0" d="M109.7,5.5H40.3L5.5,65.7l34.7,60.2h69.5l34.7-60.2L109.7,5.5z M137.2,67.3l-0.5,0.9l-0.5,0.9l-0.5,0.9L135,71
	l-0.5,0.9l-0.5,0.9l-0.5,0.9l-0.5,0.9l-1.1,1.9l-0.5,0.9l-0.5,0.9l-0.5,0.9l-0.5,0.9l-0.5,0.9l-0.5,0.9l-0.5,0.9l-0.5,0.9l-0.5,0.9
	l-0.5,0.9l-0.5,0.9l-0.5,0.9l-0.5,0.9l-0.5,0.9l-0.5,0.9l-0.5,0.9l-0.5,0.9l-0.5,0.9l-0.5,0.9l-0.5,0.9l-0.5,0.9l-1.1,1.9l-0.5,0.9
	l-0.5,0.9l-0.5,0.9l-0.5,0.9l-0.5,0.9l-0.5,0.9l-0.5,0.9l-0.5,0.9v0l-0.6,0.9l-0.5,0.9l-0.5,0.9l-1.1,1.9l-0.5,0.9l-0.5,0.9
	l-0.5,0.9l0,0l-0.5,0.9l-0.5,0.9l-0.5,0.9l-0.5,0.9l-0.5,0.9l-0.5,0.9l-0.5,0.9l-0.5,0.8H43.5l-0.1-0.2l-1.5-2.7l0,0l-1.5-2.7
	l-1.5-2.7l0,0l-1.6-2.7l-1.5-2.7l0,0L34,104l-1.5-2.7l-1.6-2.7l-1.5-2.7v0l-1.5-2.7v0l-1.6-2.7l0,0l-1.5-2.7l0,0l-1.5-2.7v0
	l-1.5-2.7l0,0l-1.5-2.7v0l-1.5-2.7L17,74.4l-1.6-2.7l-1.6-2.7l0,0l-1.5-2.7l-0.4-0.7l0.4-0.7l0.5-0.9l0.5-0.9v0l0.5-0.9l0.5-0.9
	l0.5-0.9l0.5-0.9l1.1-1.9l0.5-0.9l0.5-0.9l0.5-0.9l0.5-0.9l0.5-0.9l0.5-0.9l0.5-0.9l0.5-0.9l0.5-0.9l0.5-0.9l0.5-0.9l0.5-0.9
	l0.5-0.9l0.5-0.9l1.1-1.9l0.5-0.9l0.5-0.9l0.5-0.9l0.5-0.9l0.5-0.9l0.5-0.9l0.5-0.9l0.5-0.9l0.5-0.9l0.5-0.9l0.5-0.9l0.5-0.9
	l0.5-0.9l0.5-0.9l0.5-0.9l0.5-0.9l1.1-1.9l0.5-0.9L36,24l0.5-0.9v0l0.5-0.9l0.5-0.9l0.5-0.9l0.5-0.9l0.5-0.9l0.5-0.9l0.5-0.9
	l0.5-0.9l0.5-0.9l0.5-0.9l0.5-0.9l0.5-0.9l0.5-0.8h63.1l0.1,0.2l1.5,2.7l0,0l1.6,2.7l1.5,2.7l1.5,2.7l1.5,2.7l1.6,2.7l0,0l1.5,2.7
	l1.6,2.7l1.5,2.7l1.5,2.7l1.5,2.7l1.6,2.7l1.5,2.7l1.5,2.7l1.5,2.7l1.6,2.7l1.5,2.7l0,0l1.6,2.7l1.5,2.7l1.5,2.7l0.4,0.7l-0.4,0.7
	L137.2,67.3z"/>
<linearGradient id="SVGID_1_" gradientUnits="userSpaceOnUse" x1="0" y1="59" x2="150" y2="59" gradientTransform="matrix(1 0 0 -1 0 124.6926)">
	<stop  offset="0" style="stop-color:#FE4D57"/>
	<stop  offset="1" style="stop-color:#FFCE57"/>
</linearGradient>
<path class="st1" d="M149.3,62.9l-4.8-8.3l-0.6-1.1l0,0l-1.6-2.7l-1.5-2.7l0,0l-1.6-2.7v0l-1.5-2.7v0l-1.5-2.7l-1.5-2.7v0l-1.5-2.7
	l-1.6-2.7l0,0l-1.5-2.7l-1.5-2.7l-1.5-2.7l-1.6-2.7l0,0l-1.5-2.7l0,0l-1.6-2.7l-6-10.4l-1.6-2.8c-1-1.7-2.8-2.8-4.8-2.8H40.3
	c-2,0-3.8,1.1-4.8,2.8l-2.9,5.1v0l-0.3,0.5l-0.5,0.9l-0.5,0.9l-0.5,0.9l-0.5,0.9L29.6,13L29,14l-0.5,0.9l-1.1,1.9l-0.5,0.9l-0.5,0.9
	l-0.5,0.9l-1.1,1.9l-0.5,0.9l-0.5,0.9l-0.5,0.9l-0.5,0.9L22,26.1L21.5,27l-0.5,0.9l-0.5,0.9l-0.5,0.9l-0.5,0.9l-0.5,0.9l-0.5,0.9
	l-0.5,0.9l-0.5,0.9l-0.5,0.9l-0.5,0.9l-0.5,0.9L15,38.2v0l-0.6,0.9l-0.5,0.9L13.4,41l-0.5,0.9l-0.5,0.9l-0.5,0.9l-0.5,0.9v0
	l-0.5,0.9l-0.5,0.9l-1.1,1.9l-0.5,0.9L8,50.3l-0.5,0.9l-0.5,0.9l-0.5,0.9l-0.5,0.9l-0.3,0.6l-4.8,8.3C0.2,63.8,0,64.7,0,65.7
	c0,1,0.2,1.9,0.7,2.8l4.8,8.3l0.6,1.1l1.6,2.7l1.6,2.7l1.5,2.7l1.5,2.7l1.6,2.7l1.5,2.7l1.6,2.7l1.5,2.7l1.6,2.7l1.5,2.7l0,0
	l1.6,2.7l1.5,2.7l0,0l1.5,2.7l0,0l1.5,2.7l6,10.4l1.6,2.8c1,1.7,2.8,2.8,4.8,2.8h69.5c2,0,3.8-1.1,4.8-2.8l2.9-5.1v0l0.3-0.5
	l0.5-0.9l0.5-0.9v0l0.5-0.9h0l0.5-0.9l0.5-0.9l0.5-0.9l0.5-0.9l0.5-0.9l0.5-0.9l0.5-0.9l0.5-0.9l0.5-0.9l1.1-1.9l0.5-0.9l1.1-1.9
	l0.5-0.9l0.5-0.9l0.5-0.9l0.5-0.9l0.5-0.9l0.5-0.9l0.5-0.9l0.5-0.9l0.5-0.9l0.5-0.9l0.5-0.9l0.5-0.9l0.5-0.9l0.5-0.9l0.5-0.9
	l0.5-0.9l0.5-0.9l0.5-0.9l0.5-0.9l1.1-1.9l0.5-0.9l0.5-0.9l0.5-0.9l0.5-0.9l0.5-0.9l0.5-0.9L142,81l0.5-0.9l0.5-0.9l0.5-0.9l0.5-0.9
	l0.3-0.6l4.8-8.3c0.5-0.9,0.7-1.8,0.7-2.8C150,64.7,149.8,63.8,149.3,62.9z M137.7,66.4l-0.5,0.9l-0.5,0.9l-0.5,0.9l-0.5,0.9L135,71
	l-0.5,0.9l-0.5,0.9l-0.5,0.9l-0.5,0.9l-1.1,1.9l-0.5,0.9l-0.5,0.9l-0.5,0.9l-0.5,0.9l-0.5,0.9l-0.5,0.9l-0.5,0.9l-0.5,0.9l-0.5,0.9
	l-0.5,0.9l-0.5,0.9l-0.5,0.9l-0.5,0.9l-0.5,0.9l-0.5,0.9l-0.5,0.9l-0.5,0.9l-0.5,0.9l-0.5,0.9l-0.5,0.9l-0.5,0.9l-1.1,1.9l-0.5,0.9
	l-0.5,0.9l-0.5,0.9l-0.5,0.9l-0.5,0.9l-0.5,0.9l-0.5,0.9l-0.5,0.9v0l-0.6,0.9l-0.5,0.9l-0.5,0.9l-1.1,1.9l-0.5,0.9l-0.5,0.9
	l-0.5,0.9l0,0l-0.5,0.9l-0.5,0.9l-0.5,0.9l-0.5,0.9l-0.5,0.9l-0.5,0.9l-0.5,0.9l-0.5,0.8H43.5l-0.1-0.2l-1.5-2.7l0,0l-1.5-2.7
	l-1.5-2.7l0,0l-1.6-2.7l-1.5-2.7l0,0L34,104l-1.5-2.7l-1.6-2.7l-1.5-2.7v0l-1.5-2.7v0l-1.6-2.7l0,0l-1.5-2.7l0,0l-1.5-2.7v0
	l-1.5-2.7l0,0l-1.5-2.7v0l-1.5-2.7L17,74.4l-1.6-2.7l-1.6-2.7l0,0l-1.5-2.7l-0.4-0.7l0.4-0.7l0.5-0.9l0.5-0.9v0l0.5-0.9l0.5-0.9
	l0.5-0.9l0.5-0.9l1.1-1.9l0.5-0.9l0.5-0.9l0.5-0.9l0.5-0.9l0.5-0.9l0.5-0.9l0.5-0.9l0.5-0.9l0.5-0.9l0.5-0.9l0.5-0.9l0.5-0.9
	l0.5-0.9l0.5-0.9l1.1-1.9l0.5-0.9l0.5-0.9l0.5-0.9l0.5-0.9l0.5-0.9l0.5-0.9l0.5-0.9l0.5-0.9l0.5-0.9l0.5-0.9l0.5-0.9l0.5-0.9
	l0.5-0.9l0.5-0.9l0.5-0.9l0.5-0.9l1.1-1.9l0.5-0.9L36,24l0.5-0.9v0l0.5-0.9l0.5-0.9l0.5-0.9l0.5-0.9l0.5-0.9l0.5-0.9l0.5-0.9
	l0.5-0.9l0.5-0.9l0.5-0.9l0.5-0.9l0.5-0.9l0.5-0.8h63.1l0.1,0.2l1.5,2.7l0,0l1.6,2.7l1.5,2.7l1.5,2.7l1.5,2.7l1.6,2.7l0,0l1.5,2.7
	l1.6,2.7l1.5,2.7l1.5,2.7l1.5,2.7l1.6,2.7l1.5,2.7l1.5,2.7l1.5,2.7l1.6,2.7l1.5,2.7l0,0l1.6,2.7l1.5,2.7l1.5,2.7l0.4,0.7L137.7,66.4
	z"/>
<linearGradient id="SVGID_2_" gradientUnits="userSpaceOnUse" x1="75" y1="120.3376" x2="75" y2="11.0477">
	<stop  offset="0" style="stop-color:#FE4D57"/>
	<stop  offset="1" style="stop-color:#FFCE57"/>
</linearGradient>
<polygon class="st2" points="138.1,65.7 137.7,66.4 137.2,67.3 136.6,68.2 136.1,69.2 135.5,70.1 135,71 134.5,72 133.9,72.9 
	133.4,73.8 132.9,74.8 131.8,76.6 131.2,77.6 130.7,78.5 130.2,79.4 129.6,80.4 129.1,81.3 128.5,82.2 128,83.2 127.5,84.1 
	126.9,85 126.4,86 125.9,86.9 125.3,87.8 124.8,88.8 124.2,89.7 123.7,90.6 123.2,91.6 122.6,92.5 122.1,93.4 121.5,94.4 121,95.3 
	120.5,96.2 119.4,98.1 118.8,99 118.3,100 117.8,100.9 117.2,101.8 116.7,102.8 116.2,103.7 115.6,104.6 115.1,105.5 115.1,105.6 
	114.5,106.5 114,107.4 113.5,108.4 112.4,110.2 111.8,111.1 111.3,112.1 110.8,113 110.8,113 110.2,114 109.7,114.9 109.2,115.8 
	108.6,116.7 108.1,117.7 107.5,118.6 107,119.5 106.5,120.3 43.5,120.3 43.3,120.1 41.8,117.4 41.8,117.4 40.2,114.7 38.7,112.1 
	38.7,112 37.1,109.4 35.6,106.7 35.6,106.7 34,104 32.5,101.3 30.9,98.6 29.4,95.9 29.4,95.9 27.8,93.3 27.8,93.3 26.3,90.6 
	26.2,90.6 24.7,87.9 24.7,87.9 23.2,85.2 23.2,85.2 21.6,82.5 21.6,82.5 20.1,79.8 20.1,79.8 18.5,77.1 17,74.4 15.4,71.8 
	13.8,69.1 13.8,69.1 12.3,66.4 11.9,65.7 12.3,65 12.8,64.1 13.4,63.1 13.4,63.1 13.9,62.2 14.5,61.3 15,60.3 15.5,59.4 16.6,57.5 
	17.1,56.6 17.7,55.7 18.2,54.7 18.8,53.8 19.3,52.9 19.8,51.9 20.4,51 20.9,50.1 21.5,49.1 22,48.2 22.5,47.3 23.1,46.3 23.6,45.4 
	24.1,44.5 25.2,42.6 25.8,41.7 26.3,40.7 26.8,39.8 27.4,38.9 27.9,37.9 28.5,37 29,36.1 29.5,35.2 30.1,34.2 30.6,33.3 31.2,32.4 
	31.7,31.4 32.2,30.5 32.8,29.6 33.3,28.6 33.8,27.7 34.9,25.8 35.5,24.9 36,24 36.5,23 36.5,23 37.1,22.1 37.6,21.2 38.2,20.2 
	38.7,19.3 39.2,18.4 39.8,17.4 40.3,16.5 40.8,15.6 41.4,14.6 41.9,13.7 42.5,12.8 43,11.8 43.5,11 106.5,11 106.7,11.3 108.2,13.9 
	108.2,13.9 109.8,16.6 111.3,19.3 112.9,22 114.4,24.7 116,27.4 116,27.4 117.5,30 119.1,32.7 120.6,35.4 122.2,38.1 123.7,40.8 
	125.3,43.5 126.8,46.2 128.4,48.9 129.9,51.5 131.5,54.2 133,56.9 133,56.9 134.6,59.6 136.1,62.3 137.7,65 "/>
</svg>
